G04 #@! TF.GenerationSoftware,KiCad,Pcbnew,(5.0.1)-4*
G04 #@! TF.CreationDate,2019-01-20T23:32:10-05:00*
G04 #@! TF.ProjectId,puck_design,7075636B5F64657369676E2E6B696361,rev?*
G04 #@! TF.SameCoordinates,Original*
G04 #@! TF.FileFunction,Legend,Top*
G04 #@! TF.FilePolarity,Positive*
%FSLAX46Y46*%
G04 Gerber Fmt 4.6, Leading zero omitted, Abs format (unit mm)*
G04 Created by KiCad (PCBNEW (5.0.1)-4) date 2019-01-20 11:32:10 PM*
%MOMM*%
%LPD*%
G01*
G04 APERTURE LIST*
%ADD10C,0.150000*%
%ADD11C,0.200000*%
%ADD12C,0.127000*%
%ADD13C,0.203200*%
%ADD14C,0.304800*%
%ADD15C,0.001000*%
%ADD16C,0.152400*%
%ADD17C,0.100000*%
%ADD18C,0.050000*%
G04 APERTURE END LIST*
D10*
X128550445Y-117911400D02*
X128550445Y-82050000D01*
X128550504Y-82011332D02*
G75*
G02X128550445Y-117911400I21429940J-17950069D01*
G01*
D11*
G04 #@! TO.C,Q1*
X140180000Y-79696000D02*
G75*
G03X140180000Y-79696000I-100000J0D01*
G01*
D12*
X144030000Y-82346000D02*
X144030000Y-82149000D01*
X140730000Y-82346000D02*
X144030000Y-82346000D01*
X140730000Y-82149000D02*
X140730000Y-82346000D01*
X140730000Y-79046000D02*
X140730000Y-79243000D01*
X144030000Y-79046000D02*
X140730000Y-79046000D01*
X144030000Y-79243000D02*
X144030000Y-79046000D01*
G04 #@! TO.C,J1*
X152000000Y-73838000D02*
X152000000Y-72338000D01*
X152000000Y-72338000D02*
X148000000Y-72338000D01*
X148000000Y-72338000D02*
X148000000Y-73838000D01*
X152500000Y-73838000D02*
X152000000Y-73838000D01*
X152000000Y-73838000D02*
X148000000Y-73838000D01*
X148000000Y-73838000D02*
X147500000Y-73838000D01*
X152500000Y-73838000D02*
X152500000Y-76828000D01*
X152500000Y-79658000D02*
X152500000Y-85838000D01*
X152500000Y-85838000D02*
X148100000Y-85838000D01*
X147500000Y-83858000D02*
X147500000Y-76958000D01*
X147500000Y-73838000D02*
X147500000Y-74148000D01*
D13*
G04 #@! TO.C,BT1*
X153048000Y-96190000D02*
X153048000Y-103810000D01*
X153048000Y-96190000D02*
X159398000Y-87300000D01*
X153048000Y-103810000D02*
X159398000Y-112700000D01*
X159398000Y-112700000D02*
X163208000Y-112700000D01*
X159398000Y-87300000D02*
X163208000Y-87300000D01*
X172098000Y-87300000D02*
X168288000Y-87300000D01*
X172098000Y-112700000D02*
X168288000Y-112700000D01*
X175515556Y-92398421D02*
G75*
G03X175527000Y-107620000I12256784J-7601579D01*
G01*
X175526918Y-92379161D02*
G75*
G03X172098000Y-87300000I-3073318J1622221D01*
G01*
X172098653Y-112700533D02*
G75*
G03X175527000Y-107620000I354947J3457473D01*
G01*
D11*
G04 #@! TO.C,C1*
X142494000Y-88316000D02*
X143594000Y-88316000D01*
G04 #@! TO.C,C2*
X159440000Y-115240000D02*
X158340000Y-115240000D01*
G04 #@! TO.C,C3*
X146994000Y-105080000D02*
X145894000Y-105080000D01*
G04 #@! TO.C,C4*
X149534000Y-105080000D02*
X148434000Y-105080000D01*
G04 #@! TO.C,C5*
X152074000Y-105080000D02*
X150974000Y-105080000D01*
G04 #@! TO.C,C6*
X158300000Y-80980000D02*
X158300000Y-82080000D01*
G04 #@! TO.C,C7*
X164840000Y-84260000D02*
X164840000Y-83160000D01*
G04 #@! TO.C,C8*
X134230000Y-80820000D02*
X135330000Y-80820000D01*
G04 #@! TO.C,C9*
X138782000Y-88316000D02*
X139882000Y-88316000D01*
G04 #@! TO.C,CX1*
X135014000Y-110456000D02*
X135014000Y-109356000D01*
G04 #@! TO.C,CX2*
X135014000Y-115282000D02*
X135014000Y-114182000D01*
G04 #@! TO.C,CX3*
X135014000Y-120362000D02*
X135014000Y-119262000D01*
D12*
G04 #@! TO.C,Q2*
X144030000Y-75179000D02*
X144030000Y-74982000D01*
X144030000Y-74982000D02*
X140730000Y-74982000D01*
X140730000Y-74982000D02*
X140730000Y-75179000D01*
X140730000Y-78085000D02*
X140730000Y-78282000D01*
X140730000Y-78282000D02*
X144030000Y-78282000D01*
X144030000Y-78282000D02*
X144030000Y-78085000D01*
D11*
X140180000Y-75632000D02*
G75*
G03X140180000Y-75632000I-100000J0D01*
G01*
D14*
G04 #@! TO.C,R1*
X151524000Y-87924000D02*
X151524000Y-86908000D01*
G04 #@! TO.C,R4*
X138382000Y-84760000D02*
X138382000Y-85776000D01*
G04 #@! TO.C,R5*
X134252000Y-86538000D02*
X135268000Y-86538000D01*
D15*
G04 #@! TO.C,U2*
X128144000Y-92496980D02*
X134594000Y-92500000D01*
D12*
X134544000Y-106500000D02*
X134544000Y-107500000D01*
X134474000Y-107500000D02*
X123344000Y-107500000D01*
X123344000Y-107500000D02*
X123344000Y-92500000D01*
X123344000Y-92500000D02*
X134594000Y-92500000D01*
D11*
X135255800Y-108150000D02*
G75*
G03X135255800Y-108150000I-111800J0D01*
G01*
D12*
X144144000Y-92500000D02*
X144144000Y-106500000D01*
D16*
G04 #@! TO.C,U4*
X158150400Y-86309400D02*
X158455200Y-86309400D01*
X158455200Y-86309400D02*
X159064800Y-86309400D01*
X159064800Y-86309400D02*
X159369600Y-86309400D01*
D17*
X158455200Y-86309400D02*
G75*
G02X159064800Y-86309400I304800J0D01*
G01*
D10*
G04 #@! TO.C,U5*
X139521000Y-82682000D02*
G75*
G03X139521000Y-82682000I-70000J0D01*
G01*
D12*
X139066000Y-82562000D02*
X137566000Y-82562000D01*
X139066000Y-80862000D02*
X137566000Y-80862000D01*
D11*
G04 #@! TO.C,U1*
X148757800Y-98724000D02*
G75*
G03X148757800Y-98724000I-111800J0D01*
G01*
D10*
G04 #@! TO.C,U3*
X137295000Y-124384000D02*
X156095000Y-124384000D01*
X156095000Y-109904000D02*
X137295000Y-109904000D01*
D11*
X157461800Y-124384000D02*
G75*
G03X157461800Y-124384000I-111800J0D01*
G01*
D10*
G04 #@! TO.C,D1*
X130860000Y-91780000D02*
X133460000Y-91780000D01*
X133460000Y-91780000D02*
X133460000Y-81680000D01*
X130860000Y-91780000D02*
X130860000Y-81680000D01*
X130860000Y-81680000D02*
X133460000Y-81680000D01*
G04 #@! TD*
G04 #@! TO.C,Q1*
D18*
X144874285Y-80958857D02*
X144828571Y-80936000D01*
X144782857Y-80890285D01*
X144714285Y-80821714D01*
X144668571Y-80798857D01*
X144622857Y-80798857D01*
X144645714Y-80913142D02*
X144600000Y-80890285D01*
X144554285Y-80844571D01*
X144531428Y-80753142D01*
X144531428Y-80593142D01*
X144554285Y-80501714D01*
X144600000Y-80456000D01*
X144645714Y-80433142D01*
X144737142Y-80433142D01*
X144782857Y-80456000D01*
X144828571Y-80501714D01*
X144851428Y-80593142D01*
X144851428Y-80753142D01*
X144828571Y-80844571D01*
X144782857Y-80890285D01*
X144737142Y-80913142D01*
X144645714Y-80913142D01*
X145308571Y-80913142D02*
X145034285Y-80913142D01*
X145171428Y-80913142D02*
X145171428Y-80433142D01*
X145125714Y-80501714D01*
X145080000Y-80547428D01*
X145034285Y-80570285D01*
G04 #@! TO.C,J1*
X153456056Y-74521378D02*
X153456056Y-75236971D01*
X153408350Y-75380090D01*
X153312938Y-75475502D01*
X153169819Y-75523208D01*
X153074407Y-75523208D01*
X154457886Y-75523208D02*
X153885412Y-75523208D01*
X154171649Y-75523208D02*
X154171649Y-74521378D01*
X154076237Y-74664497D01*
X153980824Y-74759909D01*
X153885412Y-74807615D01*
G04 #@! TO.C,BT1*
D12*
X174501028Y-100146457D02*
X174588114Y-100175485D01*
X174617142Y-100204514D01*
X174646171Y-100262571D01*
X174646171Y-100349657D01*
X174617142Y-100407714D01*
X174588114Y-100436742D01*
X174530057Y-100465771D01*
X174297828Y-100465771D01*
X174297828Y-99856171D01*
X174501028Y-99856171D01*
X174559085Y-99885200D01*
X174588114Y-99914228D01*
X174617142Y-99972285D01*
X174617142Y-100030342D01*
X174588114Y-100088400D01*
X174559085Y-100117428D01*
X174501028Y-100146457D01*
X174297828Y-100146457D01*
X174820342Y-99856171D02*
X175168685Y-99856171D01*
X174994514Y-100465771D02*
X174994514Y-99856171D01*
X175691200Y-100465771D02*
X175342857Y-100465771D01*
X175517028Y-100465771D02*
X175517028Y-99856171D01*
X175458971Y-99943257D01*
X175400914Y-100001314D01*
X175342857Y-100030342D01*
G04 #@! TO.C,C1*
D18*
X144753333Y-88419142D02*
X144705714Y-88466761D01*
X144562857Y-88514380D01*
X144467619Y-88514380D01*
X144324761Y-88466761D01*
X144229523Y-88371523D01*
X144181904Y-88276285D01*
X144134285Y-88085809D01*
X144134285Y-87942952D01*
X144181904Y-87752476D01*
X144229523Y-87657238D01*
X144324761Y-87562000D01*
X144467619Y-87514380D01*
X144562857Y-87514380D01*
X144705714Y-87562000D01*
X144753333Y-87609619D01*
X145705714Y-88514380D02*
X145134285Y-88514380D01*
X145420000Y-88514380D02*
X145420000Y-87514380D01*
X145324761Y-87657238D01*
X145229523Y-87752476D01*
X145134285Y-87800095D01*
G04 #@! TO.C,C2*
X160843333Y-114927142D02*
X160795714Y-114974761D01*
X160652857Y-115022380D01*
X160557619Y-115022380D01*
X160414761Y-114974761D01*
X160319523Y-114879523D01*
X160271904Y-114784285D01*
X160224285Y-114593809D01*
X160224285Y-114450952D01*
X160271904Y-114260476D01*
X160319523Y-114165238D01*
X160414761Y-114070000D01*
X160557619Y-114022380D01*
X160652857Y-114022380D01*
X160795714Y-114070000D01*
X160843333Y-114117619D01*
X161224285Y-114117619D02*
X161271904Y-114070000D01*
X161367142Y-114022380D01*
X161605238Y-114022380D01*
X161700476Y-114070000D01*
X161748095Y-114117619D01*
X161795714Y-114212857D01*
X161795714Y-114308095D01*
X161748095Y-114450952D01*
X161176666Y-115022380D01*
X161795714Y-115022380D01*
G04 #@! TO.C,C3*
X146277333Y-108231142D02*
X146229714Y-108278761D01*
X146086857Y-108326380D01*
X145991619Y-108326380D01*
X145848761Y-108278761D01*
X145753523Y-108183523D01*
X145705904Y-108088285D01*
X145658285Y-107897809D01*
X145658285Y-107754952D01*
X145705904Y-107564476D01*
X145753523Y-107469238D01*
X145848761Y-107374000D01*
X145991619Y-107326380D01*
X146086857Y-107326380D01*
X146229714Y-107374000D01*
X146277333Y-107421619D01*
X146610666Y-107326380D02*
X147229714Y-107326380D01*
X146896380Y-107707333D01*
X147039238Y-107707333D01*
X147134476Y-107754952D01*
X147182095Y-107802571D01*
X147229714Y-107897809D01*
X147229714Y-108135904D01*
X147182095Y-108231142D01*
X147134476Y-108278761D01*
X147039238Y-108326380D01*
X146753523Y-108326380D01*
X146658285Y-108278761D01*
X146610666Y-108231142D01*
G04 #@! TO.C,C4*
X148817333Y-108231142D02*
X148769714Y-108278761D01*
X148626857Y-108326380D01*
X148531619Y-108326380D01*
X148388761Y-108278761D01*
X148293523Y-108183523D01*
X148245904Y-108088285D01*
X148198285Y-107897809D01*
X148198285Y-107754952D01*
X148245904Y-107564476D01*
X148293523Y-107469238D01*
X148388761Y-107374000D01*
X148531619Y-107326380D01*
X148626857Y-107326380D01*
X148769714Y-107374000D01*
X148817333Y-107421619D01*
X149674476Y-107659714D02*
X149674476Y-108326380D01*
X149436380Y-107278761D02*
X149198285Y-107993047D01*
X149817333Y-107993047D01*
G04 #@! TO.C,C5*
X151357333Y-108231142D02*
X151309714Y-108278761D01*
X151166857Y-108326380D01*
X151071619Y-108326380D01*
X150928761Y-108278761D01*
X150833523Y-108183523D01*
X150785904Y-108088285D01*
X150738285Y-107897809D01*
X150738285Y-107754952D01*
X150785904Y-107564476D01*
X150833523Y-107469238D01*
X150928761Y-107374000D01*
X151071619Y-107326380D01*
X151166857Y-107326380D01*
X151309714Y-107374000D01*
X151357333Y-107421619D01*
X152262095Y-107326380D02*
X151785904Y-107326380D01*
X151738285Y-107802571D01*
X151785904Y-107754952D01*
X151881142Y-107707333D01*
X152119238Y-107707333D01*
X152214476Y-107754952D01*
X152262095Y-107802571D01*
X152309714Y-107897809D01*
X152309714Y-108135904D01*
X152262095Y-108231142D01*
X152214476Y-108278761D01*
X152119238Y-108326380D01*
X151881142Y-108326380D01*
X151785904Y-108278761D01*
X151738285Y-108231142D01*
G04 #@! TO.C,C6*
X158873333Y-80252142D02*
X158825714Y-80299761D01*
X158682857Y-80347380D01*
X158587619Y-80347380D01*
X158444761Y-80299761D01*
X158349523Y-80204523D01*
X158301904Y-80109285D01*
X158254285Y-79918809D01*
X158254285Y-79775952D01*
X158301904Y-79585476D01*
X158349523Y-79490238D01*
X158444761Y-79395000D01*
X158587619Y-79347380D01*
X158682857Y-79347380D01*
X158825714Y-79395000D01*
X158873333Y-79442619D01*
X159730476Y-79347380D02*
X159540000Y-79347380D01*
X159444761Y-79395000D01*
X159397142Y-79442619D01*
X159301904Y-79585476D01*
X159254285Y-79775952D01*
X159254285Y-80156904D01*
X159301904Y-80252142D01*
X159349523Y-80299761D01*
X159444761Y-80347380D01*
X159635238Y-80347380D01*
X159730476Y-80299761D01*
X159778095Y-80252142D01*
X159825714Y-80156904D01*
X159825714Y-79918809D01*
X159778095Y-79823571D01*
X159730476Y-79775952D01*
X159635238Y-79728333D01*
X159444761Y-79728333D01*
X159349523Y-79775952D01*
X159301904Y-79823571D01*
X159254285Y-79918809D01*
G04 #@! TO.C,C7*
X164673333Y-81781142D02*
X164625714Y-81828761D01*
X164482857Y-81876380D01*
X164387619Y-81876380D01*
X164244761Y-81828761D01*
X164149523Y-81733523D01*
X164101904Y-81638285D01*
X164054285Y-81447809D01*
X164054285Y-81304952D01*
X164101904Y-81114476D01*
X164149523Y-81019238D01*
X164244761Y-80924000D01*
X164387619Y-80876380D01*
X164482857Y-80876380D01*
X164625714Y-80924000D01*
X164673333Y-80971619D01*
X165006666Y-80876380D02*
X165673333Y-80876380D01*
X165244761Y-81876380D01*
G04 #@! TO.C,C8*
X132545333Y-80481142D02*
X132497714Y-80528761D01*
X132354857Y-80576380D01*
X132259619Y-80576380D01*
X132116761Y-80528761D01*
X132021523Y-80433523D01*
X131973904Y-80338285D01*
X131926285Y-80147809D01*
X131926285Y-80004952D01*
X131973904Y-79814476D01*
X132021523Y-79719238D01*
X132116761Y-79624000D01*
X132259619Y-79576380D01*
X132354857Y-79576380D01*
X132497714Y-79624000D01*
X132545333Y-79671619D01*
X133116761Y-80004952D02*
X133021523Y-79957333D01*
X132973904Y-79909714D01*
X132926285Y-79814476D01*
X132926285Y-79766857D01*
X132973904Y-79671619D01*
X133021523Y-79624000D01*
X133116761Y-79576380D01*
X133307238Y-79576380D01*
X133402476Y-79624000D01*
X133450095Y-79671619D01*
X133497714Y-79766857D01*
X133497714Y-79814476D01*
X133450095Y-79909714D01*
X133402476Y-79957333D01*
X133307238Y-80004952D01*
X133116761Y-80004952D01*
X133021523Y-80052571D01*
X132973904Y-80100190D01*
X132926285Y-80195428D01*
X132926285Y-80385904D01*
X132973904Y-80481142D01*
X133021523Y-80528761D01*
X133116761Y-80576380D01*
X133307238Y-80576380D01*
X133402476Y-80528761D01*
X133450095Y-80481142D01*
X133497714Y-80385904D01*
X133497714Y-80195428D01*
X133450095Y-80100190D01*
X133402476Y-80052571D01*
X133307238Y-80004952D01*
G04 #@! TO.C,C9*
X137133333Y-88673142D02*
X137085714Y-88720761D01*
X136942857Y-88768380D01*
X136847619Y-88768380D01*
X136704761Y-88720761D01*
X136609523Y-88625523D01*
X136561904Y-88530285D01*
X136514285Y-88339809D01*
X136514285Y-88196952D01*
X136561904Y-88006476D01*
X136609523Y-87911238D01*
X136704761Y-87816000D01*
X136847619Y-87768380D01*
X136942857Y-87768380D01*
X137085714Y-87816000D01*
X137133333Y-87863619D01*
X137609523Y-88768380D02*
X137800000Y-88768380D01*
X137895238Y-88720761D01*
X137942857Y-88673142D01*
X138038095Y-88530285D01*
X138085714Y-88339809D01*
X138085714Y-87958857D01*
X138038095Y-87863619D01*
X137990476Y-87816000D01*
X137895238Y-87768380D01*
X137704761Y-87768380D01*
X137609523Y-87816000D01*
X137561904Y-87863619D01*
X137514285Y-87958857D01*
X137514285Y-88196952D01*
X137561904Y-88292190D01*
X137609523Y-88339809D01*
X137704761Y-88387428D01*
X137895238Y-88387428D01*
X137990476Y-88339809D01*
X138038095Y-88292190D01*
X138085714Y-88196952D01*
G04 #@! TO.C,CX1*
X130923142Y-110125142D02*
X130875523Y-110172761D01*
X130732666Y-110220380D01*
X130637428Y-110220380D01*
X130494571Y-110172761D01*
X130399333Y-110077523D01*
X130351714Y-109982285D01*
X130304095Y-109791809D01*
X130304095Y-109648952D01*
X130351714Y-109458476D01*
X130399333Y-109363238D01*
X130494571Y-109268000D01*
X130637428Y-109220380D01*
X130732666Y-109220380D01*
X130875523Y-109268000D01*
X130923142Y-109315619D01*
X131256476Y-109220380D02*
X131923142Y-110220380D01*
X131923142Y-109220380D02*
X131256476Y-110220380D01*
X132827904Y-110220380D02*
X132256476Y-110220380D01*
X132542190Y-110220380D02*
X132542190Y-109220380D01*
X132446952Y-109363238D01*
X132351714Y-109458476D01*
X132256476Y-109506095D01*
G04 #@! TO.C,CX2*
X131069142Y-114835142D02*
X131021523Y-114882761D01*
X130878666Y-114930380D01*
X130783428Y-114930380D01*
X130640571Y-114882761D01*
X130545333Y-114787523D01*
X130497714Y-114692285D01*
X130450095Y-114501809D01*
X130450095Y-114358952D01*
X130497714Y-114168476D01*
X130545333Y-114073238D01*
X130640571Y-113978000D01*
X130783428Y-113930380D01*
X130878666Y-113930380D01*
X131021523Y-113978000D01*
X131069142Y-114025619D01*
X131402476Y-113930380D02*
X132069142Y-114930380D01*
X132069142Y-113930380D02*
X131402476Y-114930380D01*
X132402476Y-114025619D02*
X132450095Y-113978000D01*
X132545333Y-113930380D01*
X132783428Y-113930380D01*
X132878666Y-113978000D01*
X132926285Y-114025619D01*
X132973904Y-114120857D01*
X132973904Y-114216095D01*
X132926285Y-114358952D01*
X132354857Y-114930380D01*
X132973904Y-114930380D01*
G04 #@! TO.C,CX3*
X131227142Y-118697142D02*
X131179523Y-118744761D01*
X131036666Y-118792380D01*
X130941428Y-118792380D01*
X130798571Y-118744761D01*
X130703333Y-118649523D01*
X130655714Y-118554285D01*
X130608095Y-118363809D01*
X130608095Y-118220952D01*
X130655714Y-118030476D01*
X130703333Y-117935238D01*
X130798571Y-117840000D01*
X130941428Y-117792380D01*
X131036666Y-117792380D01*
X131179523Y-117840000D01*
X131227142Y-117887619D01*
X131560476Y-117792380D02*
X132227142Y-118792380D01*
X132227142Y-117792380D02*
X131560476Y-118792380D01*
X132512857Y-117792380D02*
X133131904Y-117792380D01*
X132798571Y-118173333D01*
X132941428Y-118173333D01*
X133036666Y-118220952D01*
X133084285Y-118268571D01*
X133131904Y-118363809D01*
X133131904Y-118601904D01*
X133084285Y-118697142D01*
X133036666Y-118744761D01*
X132941428Y-118792380D01*
X132655714Y-118792380D01*
X132560476Y-118744761D01*
X132512857Y-118697142D01*
G04 #@! TO.C,L1*
X147631013Y-94254964D02*
X147331050Y-94254964D01*
X147331050Y-93625043D01*
X148170945Y-94254964D02*
X147810990Y-94254964D01*
X147990968Y-94254964D02*
X147990968Y-93625043D01*
X147930975Y-93715031D01*
X147870983Y-93775024D01*
X147810990Y-93805020D01*
G04 #@! TO.C,Q2*
X142334285Y-74590057D02*
X142288571Y-74567200D01*
X142242857Y-74521485D01*
X142174285Y-74452914D01*
X142128571Y-74430057D01*
X142082857Y-74430057D01*
X142105714Y-74544342D02*
X142060000Y-74521485D01*
X142014285Y-74475771D01*
X141991428Y-74384342D01*
X141991428Y-74224342D01*
X142014285Y-74132914D01*
X142060000Y-74087200D01*
X142105714Y-74064342D01*
X142197142Y-74064342D01*
X142242857Y-74087200D01*
X142288571Y-74132914D01*
X142311428Y-74224342D01*
X142311428Y-74384342D01*
X142288571Y-74475771D01*
X142242857Y-74521485D01*
X142197142Y-74544342D01*
X142105714Y-74544342D01*
X142494285Y-74110057D02*
X142517142Y-74087200D01*
X142562857Y-74064342D01*
X142677142Y-74064342D01*
X142722857Y-74087200D01*
X142745714Y-74110057D01*
X142768571Y-74155771D01*
X142768571Y-74201485D01*
X142745714Y-74270057D01*
X142471428Y-74544342D01*
X142768571Y-74544342D01*
G04 #@! TO.C,R1*
X151553333Y-89479523D02*
X151340000Y-89174761D01*
X151187619Y-89479523D02*
X151187619Y-88839523D01*
X151431428Y-88839523D01*
X151492380Y-88870000D01*
X151522857Y-88900476D01*
X151553333Y-88961428D01*
X151553333Y-89052857D01*
X151522857Y-89113809D01*
X151492380Y-89144285D01*
X151431428Y-89174761D01*
X151187619Y-89174761D01*
X152162857Y-89479523D02*
X151797142Y-89479523D01*
X151980000Y-89479523D02*
X151980000Y-88839523D01*
X151919047Y-88930952D01*
X151858095Y-88991904D01*
X151797142Y-89022380D01*
G04 #@! TO.C,R2*
X142529013Y-84790964D02*
X142319039Y-84491001D01*
X142169058Y-84790964D02*
X142169058Y-84161043D01*
X142409028Y-84161043D01*
X142469020Y-84191039D01*
X142499016Y-84221035D01*
X142529013Y-84281028D01*
X142529013Y-84371016D01*
X142499016Y-84431009D01*
X142469020Y-84461005D01*
X142409028Y-84491001D01*
X142169058Y-84491001D01*
X142768983Y-84221035D02*
X142798979Y-84191039D01*
X142858971Y-84161043D01*
X143008952Y-84161043D01*
X143068945Y-84191039D01*
X143098941Y-84221035D01*
X143128937Y-84281028D01*
X143128937Y-84341020D01*
X143098941Y-84431009D01*
X142738986Y-84790964D01*
X143128937Y-84790964D01*
G04 #@! TO.C,R3*
X137505013Y-77224964D02*
X137295039Y-76925001D01*
X137145058Y-77224964D02*
X137145058Y-76595043D01*
X137385028Y-76595043D01*
X137445020Y-76625039D01*
X137475016Y-76655035D01*
X137505013Y-76715028D01*
X137505013Y-76805016D01*
X137475016Y-76865009D01*
X137445020Y-76895005D01*
X137385028Y-76925001D01*
X137145058Y-76925001D01*
X137714986Y-76595043D02*
X138104937Y-76595043D01*
X137894964Y-76835013D01*
X137984952Y-76835013D01*
X138044945Y-76865009D01*
X138074941Y-76895005D01*
X138104937Y-76954998D01*
X138104937Y-77104979D01*
X138074941Y-77164971D01*
X138044945Y-77194968D01*
X137984952Y-77224964D01*
X137804975Y-77224964D01*
X137744983Y-77194968D01*
X137714986Y-77164971D01*
G04 #@! TO.C,R4*
X138209333Y-84033523D02*
X137996000Y-83728761D01*
X137843619Y-84033523D02*
X137843619Y-83393523D01*
X138087428Y-83393523D01*
X138148380Y-83424000D01*
X138178857Y-83454476D01*
X138209333Y-83515428D01*
X138209333Y-83606857D01*
X138178857Y-83667809D01*
X138148380Y-83698285D01*
X138087428Y-83728761D01*
X137843619Y-83728761D01*
X138757904Y-83606857D02*
X138757904Y-84033523D01*
X138605523Y-83363047D02*
X138453142Y-83820190D01*
X138849333Y-83820190D01*
G04 #@! TO.C,R5*
X134693333Y-84509523D02*
X134480000Y-84204761D01*
X134327619Y-84509523D02*
X134327619Y-83869523D01*
X134571428Y-83869523D01*
X134632380Y-83900000D01*
X134662857Y-83930476D01*
X134693333Y-83991428D01*
X134693333Y-84082857D01*
X134662857Y-84143809D01*
X134632380Y-84174285D01*
X134571428Y-84204761D01*
X134327619Y-84204761D01*
X135272380Y-83869523D02*
X134967619Y-83869523D01*
X134937142Y-84174285D01*
X134967619Y-84143809D01*
X135028571Y-84113333D01*
X135180952Y-84113333D01*
X135241904Y-84143809D01*
X135272380Y-84174285D01*
X135302857Y-84235238D01*
X135302857Y-84387619D01*
X135272380Y-84448571D01*
X135241904Y-84479047D01*
X135180952Y-84509523D01*
X135028571Y-84509523D01*
X134967619Y-84479047D01*
X134937142Y-84448571D01*
G04 #@! TO.C,U2*
X144498095Y-98172380D02*
X144498095Y-98981904D01*
X144545714Y-99077142D01*
X144593333Y-99124761D01*
X144688571Y-99172380D01*
X144879047Y-99172380D01*
X144974285Y-99124761D01*
X145021904Y-99077142D01*
X145069523Y-98981904D01*
X145069523Y-98172380D01*
X145498095Y-98267619D02*
X145545714Y-98220000D01*
X145640952Y-98172380D01*
X145879047Y-98172380D01*
X145974285Y-98220000D01*
X146021904Y-98267619D01*
X146069523Y-98362857D01*
X146069523Y-98458095D01*
X146021904Y-98600952D01*
X145450476Y-99172380D01*
X146069523Y-99172380D01*
X131132571Y-101738095D02*
X131180190Y-101595238D01*
X131227809Y-101547619D01*
X131323047Y-101500000D01*
X131465904Y-101500000D01*
X131561142Y-101547619D01*
X131608761Y-101595238D01*
X131656380Y-101690476D01*
X131656380Y-102071428D01*
X130656380Y-102071428D01*
X130656380Y-101738095D01*
X130704000Y-101642857D01*
X130751619Y-101595238D01*
X130846857Y-101547619D01*
X130942095Y-101547619D01*
X131037333Y-101595238D01*
X131084952Y-101642857D01*
X131132571Y-101738095D01*
X131132571Y-102071428D01*
X130656380Y-101214285D02*
X130656380Y-100642857D01*
X131656380Y-100928571D02*
X130656380Y-100928571D01*
X131084952Y-100166666D02*
X131037333Y-100261904D01*
X130989714Y-100309523D01*
X130894476Y-100357142D01*
X130846857Y-100357142D01*
X130751619Y-100309523D01*
X130704000Y-100261904D01*
X130656380Y-100166666D01*
X130656380Y-99976190D01*
X130704000Y-99880952D01*
X130751619Y-99833333D01*
X130846857Y-99785714D01*
X130894476Y-99785714D01*
X130989714Y-99833333D01*
X131037333Y-99880952D01*
X131084952Y-99976190D01*
X131084952Y-100166666D01*
X131132571Y-100261904D01*
X131180190Y-100309523D01*
X131275428Y-100357142D01*
X131465904Y-100357142D01*
X131561142Y-100309523D01*
X131608761Y-100261904D01*
X131656380Y-100166666D01*
X131656380Y-99976190D01*
X131608761Y-99880952D01*
X131561142Y-99833333D01*
X131465904Y-99785714D01*
X131275428Y-99785714D01*
X131180190Y-99833333D01*
X131132571Y-99880952D01*
X131084952Y-99976190D01*
X130989714Y-98928571D02*
X131656380Y-98928571D01*
X130608761Y-99166666D02*
X131323047Y-99404761D01*
X131323047Y-98785714D01*
X130656380Y-98214285D02*
X130656380Y-98119047D01*
X130704000Y-98023809D01*
X130751619Y-97976190D01*
X130846857Y-97928571D01*
X131037333Y-97880952D01*
X131275428Y-97880952D01*
X131465904Y-97928571D01*
X131561142Y-97976190D01*
X131608761Y-98023809D01*
X131656380Y-98119047D01*
X131656380Y-98214285D01*
X131608761Y-98309523D01*
X131561142Y-98357142D01*
X131465904Y-98404761D01*
X131275428Y-98452380D01*
X131037333Y-98452380D01*
X130846857Y-98404761D01*
X130751619Y-98357142D01*
X130704000Y-98309523D01*
X130656380Y-98214285D01*
G04 #@! TO.C,U4*
X153559699Y-83771346D02*
X153559699Y-85099790D01*
X153637842Y-85256078D01*
X153715986Y-85334222D01*
X153872274Y-85412366D01*
X154184849Y-85412366D01*
X154341137Y-85334222D01*
X154419280Y-85256078D01*
X154497424Y-85099790D01*
X154497424Y-83771346D01*
X155982157Y-84318352D02*
X155982157Y-85412366D01*
X155591438Y-83693202D02*
X155200719Y-84865359D01*
X156216588Y-84865359D01*
G04 #@! TO.C,U5*
X137452476Y-79749904D02*
X137452476Y-80397523D01*
X137490571Y-80473714D01*
X137528666Y-80511809D01*
X137604857Y-80549904D01*
X137757238Y-80549904D01*
X137833428Y-80511809D01*
X137871523Y-80473714D01*
X137909619Y-80397523D01*
X137909619Y-79749904D01*
X138671523Y-79749904D02*
X138290571Y-79749904D01*
X138252476Y-80130857D01*
X138290571Y-80092761D01*
X138366761Y-80054666D01*
X138557238Y-80054666D01*
X138633428Y-80092761D01*
X138671523Y-80130857D01*
X138709619Y-80207047D01*
X138709619Y-80397523D01*
X138671523Y-80473714D01*
X138633428Y-80511809D01*
X138557238Y-80549904D01*
X138366761Y-80549904D01*
X138290571Y-80511809D01*
X138252476Y-80473714D01*
G04 #@! TO.C,U1*
D10*
X149118095Y-96742380D02*
X149118095Y-97551904D01*
X149165714Y-97647142D01*
X149213333Y-97694761D01*
X149308571Y-97742380D01*
X149499047Y-97742380D01*
X149594285Y-97694761D01*
X149641904Y-97647142D01*
X149689523Y-97551904D01*
X149689523Y-96742380D01*
X150689523Y-97742380D02*
X150118095Y-97742380D01*
X150403809Y-97742380D02*
X150403809Y-96742380D01*
X150308571Y-96885238D01*
X150213333Y-96980476D01*
X150118095Y-97028095D01*
G04 #@! TO.C,U3*
X146952095Y-125106380D02*
X146952095Y-125915904D01*
X146999714Y-126011142D01*
X147047333Y-126058761D01*
X147142571Y-126106380D01*
X147333047Y-126106380D01*
X147428285Y-126058761D01*
X147475904Y-126011142D01*
X147523523Y-125915904D01*
X147523523Y-125106380D01*
X147904476Y-125106380D02*
X148523523Y-125106380D01*
X148190190Y-125487333D01*
X148333047Y-125487333D01*
X148428285Y-125534952D01*
X148475904Y-125582571D01*
X148523523Y-125677809D01*
X148523523Y-125915904D01*
X148475904Y-126011142D01*
X148428285Y-126058761D01*
X148333047Y-126106380D01*
X148047333Y-126106380D01*
X147952095Y-126058761D01*
X147904476Y-126011142D01*
G04 #@! TO.C,D1*
X130322380Y-87238095D02*
X129322380Y-87238095D01*
X129322380Y-87000000D01*
X129370000Y-86857142D01*
X129465238Y-86761904D01*
X129560476Y-86714285D01*
X129750952Y-86666666D01*
X129893809Y-86666666D01*
X130084285Y-86714285D01*
X130179523Y-86761904D01*
X130274761Y-86857142D01*
X130322380Y-87000000D01*
X130322380Y-87238095D01*
X130322380Y-85714285D02*
X130322380Y-86285714D01*
X130322380Y-86000000D02*
X129322380Y-86000000D01*
X129465238Y-86095238D01*
X129560476Y-86190476D01*
X129608095Y-86285714D01*
G04 #@! TD*
M02*
