G04 #@! TF.GenerationSoftware,KiCad,Pcbnew,(5.0.1)-4*
G04 #@! TF.CreationDate,2019-01-22T16:06:35-05:00*
G04 #@! TF.ProjectId,puck_design,7075636B5F64657369676E2E6B696361,rev?*
G04 #@! TF.SameCoordinates,Original*
G04 #@! TF.FileFunction,Legend,Bot*
G04 #@! TF.FilePolarity,Positive*
%FSLAX46Y46*%
G04 Gerber Fmt 4.6, Leading zero omitted, Abs format (unit mm)*
G04 Created by KiCad (PCBNEW (5.0.1)-4) date 2019-01-22 4:06:35 PM*
%MOMM*%
%LPD*%
G01*
G04 APERTURE LIST*
%ADD10C,0.300000*%
G04 APERTURE END LIST*
D10*
X166658571Y-95934285D02*
X166658571Y-96791428D01*
X168158571Y-96362857D02*
X166658571Y-96362857D01*
X168087142Y-97862857D02*
X168158571Y-97720000D01*
X168158571Y-97434285D01*
X168087142Y-97291428D01*
X167944285Y-97220000D01*
X167372857Y-97220000D01*
X167230000Y-97291428D01*
X167158571Y-97434285D01*
X167158571Y-97720000D01*
X167230000Y-97862857D01*
X167372857Y-97934285D01*
X167515714Y-97934285D01*
X167658571Y-97220000D01*
X168158571Y-99220000D02*
X167372857Y-99220000D01*
X167230000Y-99148571D01*
X167158571Y-99005714D01*
X167158571Y-98720000D01*
X167230000Y-98577142D01*
X168087142Y-99220000D02*
X168158571Y-99077142D01*
X168158571Y-98720000D01*
X168087142Y-98577142D01*
X167944285Y-98505714D01*
X167801428Y-98505714D01*
X167658571Y-98577142D01*
X167587142Y-98720000D01*
X167587142Y-99077142D01*
X167515714Y-99220000D01*
X168158571Y-99934285D02*
X167158571Y-99934285D01*
X167301428Y-99934285D02*
X167230000Y-100005714D01*
X167158571Y-100148571D01*
X167158571Y-100362857D01*
X167230000Y-100505714D01*
X167372857Y-100577142D01*
X168158571Y-100577142D01*
X167372857Y-100577142D02*
X167230000Y-100648571D01*
X167158571Y-100791428D01*
X167158571Y-101005714D01*
X167230000Y-101148571D01*
X167372857Y-101220000D01*
X168158571Y-101220000D01*
X166801428Y-103005714D02*
X166730000Y-103077142D01*
X166658571Y-103220000D01*
X166658571Y-103577142D01*
X166730000Y-103720000D01*
X166801428Y-103791428D01*
X166944285Y-103862857D01*
X167087142Y-103862857D01*
X167301428Y-103791428D01*
X168158571Y-102934285D01*
X168158571Y-103862857D01*
X170708571Y-88005714D02*
X169208571Y-88005714D01*
X169208571Y-88577142D01*
X169280000Y-88720000D01*
X169351428Y-88791428D01*
X169494285Y-88862857D01*
X169708571Y-88862857D01*
X169851428Y-88791428D01*
X169922857Y-88720000D01*
X169994285Y-88577142D01*
X169994285Y-88005714D01*
X170637142Y-90077142D02*
X170708571Y-89934285D01*
X170708571Y-89648571D01*
X170637142Y-89505714D01*
X170494285Y-89434285D01*
X169922857Y-89434285D01*
X169780000Y-89505714D01*
X169708571Y-89648571D01*
X169708571Y-89934285D01*
X169780000Y-90077142D01*
X169922857Y-90148571D01*
X170065714Y-90148571D01*
X170208571Y-89434285D01*
X170708571Y-90791428D02*
X169708571Y-90791428D01*
X169994285Y-90791428D02*
X169851428Y-90862857D01*
X169780000Y-90934285D01*
X169708571Y-91077142D01*
X169708571Y-91220000D01*
X169708571Y-91505714D02*
X169708571Y-92077142D01*
X170708571Y-91720000D02*
X169422857Y-91720000D01*
X169280000Y-91791428D01*
X169208571Y-91934285D01*
X169208571Y-92077142D01*
X170708571Y-92791428D02*
X170637142Y-92648571D01*
X170565714Y-92577142D01*
X170422857Y-92505714D01*
X169994285Y-92505714D01*
X169851428Y-92577142D01*
X169780000Y-92648571D01*
X169708571Y-92791428D01*
X169708571Y-93005714D01*
X169780000Y-93148571D01*
X169851428Y-93220000D01*
X169994285Y-93291428D01*
X170422857Y-93291428D01*
X170565714Y-93220000D01*
X170637142Y-93148571D01*
X170708571Y-93005714D01*
X170708571Y-92791428D01*
X170708571Y-93934285D02*
X169708571Y-93934285D01*
X169994285Y-93934285D02*
X169851428Y-94005714D01*
X169780000Y-94077142D01*
X169708571Y-94220000D01*
X169708571Y-94362857D01*
X170708571Y-94862857D02*
X169708571Y-94862857D01*
X169851428Y-94862857D02*
X169780000Y-94934285D01*
X169708571Y-95077142D01*
X169708571Y-95291428D01*
X169780000Y-95434285D01*
X169922857Y-95505714D01*
X170708571Y-95505714D01*
X169922857Y-95505714D02*
X169780000Y-95577142D01*
X169708571Y-95720000D01*
X169708571Y-95934285D01*
X169780000Y-96077142D01*
X169922857Y-96148571D01*
X170708571Y-96148571D01*
X170708571Y-97505714D02*
X169922857Y-97505714D01*
X169780000Y-97434285D01*
X169708571Y-97291428D01*
X169708571Y-97005714D01*
X169780000Y-96862857D01*
X170637142Y-97505714D02*
X170708571Y-97362857D01*
X170708571Y-97005714D01*
X170637142Y-96862857D01*
X170494285Y-96791428D01*
X170351428Y-96791428D01*
X170208571Y-96862857D01*
X170137142Y-97005714D01*
X170137142Y-97362857D01*
X170065714Y-97505714D01*
X169708571Y-98220000D02*
X170708571Y-98220000D01*
X169851428Y-98220000D02*
X169780000Y-98291428D01*
X169708571Y-98434285D01*
X169708571Y-98648571D01*
X169780000Y-98791428D01*
X169922857Y-98862857D01*
X170708571Y-98862857D01*
X170637142Y-100220000D02*
X170708571Y-100077142D01*
X170708571Y-99791428D01*
X170637142Y-99648571D01*
X170565714Y-99577142D01*
X170422857Y-99505714D01*
X169994285Y-99505714D01*
X169851428Y-99577142D01*
X169780000Y-99648571D01*
X169708571Y-99791428D01*
X169708571Y-100077142D01*
X169780000Y-100220000D01*
X170637142Y-101434285D02*
X170708571Y-101291428D01*
X170708571Y-101005714D01*
X170637142Y-100862857D01*
X170494285Y-100791428D01*
X169922857Y-100791428D01*
X169780000Y-100862857D01*
X169708571Y-101005714D01*
X169708571Y-101291428D01*
X169780000Y-101434285D01*
X169922857Y-101505714D01*
X170065714Y-101505714D01*
X170208571Y-100791428D01*
X169208571Y-103077142D02*
X169208571Y-103934285D01*
X170708571Y-103505714D02*
X169208571Y-103505714D01*
X170708571Y-104434285D02*
X169708571Y-104434285D01*
X169994285Y-104434285D02*
X169851428Y-104505714D01*
X169780000Y-104577142D01*
X169708571Y-104720000D01*
X169708571Y-104862857D01*
X170708571Y-106005714D02*
X169922857Y-106005714D01*
X169780000Y-105934285D01*
X169708571Y-105791428D01*
X169708571Y-105505714D01*
X169780000Y-105362857D01*
X170637142Y-106005714D02*
X170708571Y-105862857D01*
X170708571Y-105505714D01*
X170637142Y-105362857D01*
X170494285Y-105291428D01*
X170351428Y-105291428D01*
X170208571Y-105362857D01*
X170137142Y-105505714D01*
X170137142Y-105862857D01*
X170065714Y-106005714D01*
X170637142Y-107362857D02*
X170708571Y-107220000D01*
X170708571Y-106934285D01*
X170637142Y-106791428D01*
X170565714Y-106720000D01*
X170422857Y-106648571D01*
X169994285Y-106648571D01*
X169851428Y-106720000D01*
X169780000Y-106791428D01*
X169708571Y-106934285D01*
X169708571Y-107220000D01*
X169780000Y-107362857D01*
X170708571Y-108005714D02*
X169208571Y-108005714D01*
X170137142Y-108148571D02*
X170708571Y-108577142D01*
X169708571Y-108577142D02*
X170280000Y-108005714D01*
X170708571Y-109220000D02*
X169708571Y-109220000D01*
X169208571Y-109220000D02*
X169280000Y-109148571D01*
X169351428Y-109220000D01*
X169280000Y-109291428D01*
X169208571Y-109220000D01*
X169351428Y-109220000D01*
X169708571Y-109934285D02*
X170708571Y-109934285D01*
X169851428Y-109934285D02*
X169780000Y-110005714D01*
X169708571Y-110148571D01*
X169708571Y-110362857D01*
X169780000Y-110505714D01*
X169922857Y-110577142D01*
X170708571Y-110577142D01*
X169708571Y-111934285D02*
X170922857Y-111934285D01*
X171065714Y-111862857D01*
X171137142Y-111791428D01*
X171208571Y-111648571D01*
X171208571Y-111434285D01*
X171137142Y-111291428D01*
X170637142Y-111934285D02*
X170708571Y-111791428D01*
X170708571Y-111505714D01*
X170637142Y-111362857D01*
X170565714Y-111291428D01*
X170422857Y-111220000D01*
X169994285Y-111220000D01*
X169851428Y-111291428D01*
X169780000Y-111362857D01*
X169708571Y-111505714D01*
X169708571Y-111791428D01*
X169780000Y-111934285D01*
X173258571Y-93148571D02*
X171758571Y-93148571D01*
X172472857Y-93148571D02*
X172472857Y-94005714D01*
X173258571Y-94005714D02*
X171758571Y-94005714D01*
X173258571Y-94934285D02*
X173187142Y-94791428D01*
X173115714Y-94720000D01*
X172972857Y-94648571D01*
X172544285Y-94648571D01*
X172401428Y-94720000D01*
X172330000Y-94791428D01*
X172258571Y-94934285D01*
X172258571Y-95148571D01*
X172330000Y-95291428D01*
X172401428Y-95362857D01*
X172544285Y-95434285D01*
X172972857Y-95434285D01*
X173115714Y-95362857D01*
X173187142Y-95291428D01*
X173258571Y-95148571D01*
X173258571Y-94934285D01*
X173187142Y-96720000D02*
X173258571Y-96577142D01*
X173258571Y-96291428D01*
X173187142Y-96148571D01*
X173115714Y-96077142D01*
X172972857Y-96005714D01*
X172544285Y-96005714D01*
X172401428Y-96077142D01*
X172330000Y-96148571D01*
X172258571Y-96291428D01*
X172258571Y-96577142D01*
X172330000Y-96720000D01*
X173258571Y-97362857D02*
X171758571Y-97362857D01*
X172687142Y-97505714D02*
X173258571Y-97934285D01*
X172258571Y-97934285D02*
X172830000Y-97362857D01*
X173187142Y-99148571D02*
X173258571Y-99005714D01*
X173258571Y-98720000D01*
X173187142Y-98577142D01*
X173044285Y-98505714D01*
X172472857Y-98505714D01*
X172330000Y-98577142D01*
X172258571Y-98720000D01*
X172258571Y-99005714D01*
X172330000Y-99148571D01*
X172472857Y-99220000D01*
X172615714Y-99220000D01*
X172758571Y-98505714D01*
X172258571Y-99720000D02*
X173258571Y-100077142D01*
X172258571Y-100434285D02*
X173258571Y-100077142D01*
X173615714Y-99934285D01*
X173687142Y-99862857D01*
X173758571Y-99720000D01*
X173258571Y-102148571D02*
X171758571Y-102148571D01*
X171758571Y-102720000D01*
X171830000Y-102862857D01*
X171901428Y-102934285D01*
X172044285Y-103005714D01*
X172258571Y-103005714D01*
X172401428Y-102934285D01*
X172472857Y-102862857D01*
X172544285Y-102720000D01*
X172544285Y-102148571D01*
X172258571Y-104291428D02*
X173258571Y-104291428D01*
X172258571Y-103648571D02*
X173044285Y-103648571D01*
X173187142Y-103720000D01*
X173258571Y-103862857D01*
X173258571Y-104077142D01*
X173187142Y-104220000D01*
X173115714Y-104291428D01*
X173187142Y-105648571D02*
X173258571Y-105505714D01*
X173258571Y-105220000D01*
X173187142Y-105077142D01*
X173115714Y-105005714D01*
X172972857Y-104934285D01*
X172544285Y-104934285D01*
X172401428Y-105005714D01*
X172330000Y-105077142D01*
X172258571Y-105220000D01*
X172258571Y-105505714D01*
X172330000Y-105648571D01*
X173258571Y-106291428D02*
X171758571Y-106291428D01*
X172687142Y-106434285D02*
X173258571Y-106862857D01*
X172258571Y-106862857D02*
X172830000Y-106291428D01*
M02*
