M48
;DRILL file {KiCad (5.0.1)-4} date 2019-01-22 4:07:03 PM
;FORMAT={-:-/ absolute / inch / decimal}
FMAT,2
INCH,TZ
T1C0.0250
T2C0.0394
T3C0.0730
%
G90
G05
M72
T1
X5.3055Y-3.5106
X5.3299Y-3.7094
X5.3299Y-3.7094
X5.3299Y-3.7094
X5.3682Y-3.1855
X5.3714Y-3.0814
X5.3724Y-3.7098
X5.4855Y-3.5706
X5.4883Y-3.7112
X5.5155Y-3.107
X5.7055Y-3.827
X5.7273Y-3.107
X5.7455Y-3.5124
X5.7655Y-3.937
X5.7655Y-4.047
X5.9272Y-3.5059
X5.9654Y-4.2921
X5.9655Y-4.047
X5.9855Y-3.857
X5.9955Y-3.947
X6.0355Y-4.227
X6.0796Y-3.5108
X6.3355Y-4.5724
X6.3492Y-3.2567
X6.3953Y-3.3902
X6.6237Y-3.1855
T2
X5.2031Y-3.2669
X5.2031Y-3.3654
X5.2031Y-3.4638
X5.2031Y-3.5622
T3
X6.5255Y-3.437
X6.5255Y-4.437
T0
M30
