G04 #@! TF.GenerationSoftware,KiCad,Pcbnew,(5.0.1)-4*
G04 #@! TF.CreationDate,2019-01-22T16:06:35-05:00*
G04 #@! TF.ProjectId,puck_design,7075636B5F64657369676E2E6B696361,rev?*
G04 #@! TF.SameCoordinates,Original*
G04 #@! TF.FileFunction,Copper,L1,Top,Signal*
G04 #@! TF.FilePolarity,Positive*
%FSLAX46Y46*%
G04 Gerber Fmt 4.6, Leading zero omitted, Abs format (unit mm)*
G04 Created by KiCad (PCBNEW (5.0.1)-4) date 2019-01-22 4:06:35 PM*
%MOMM*%
%LPD*%
G01*
G04 APERTURE LIST*
G04 #@! TA.AperFunction,SMDPad,CuDef*
%ADD10R,0.410000X0.500000*%
G04 #@! TD*
G04 #@! TA.AperFunction,SMDPad,CuDef*
%ADD11R,0.630000X0.500000*%
G04 #@! TD*
G04 #@! TA.AperFunction,SMDPad,CuDef*
%ADD12R,1.900000X2.450000*%
G04 #@! TD*
G04 #@! TA.AperFunction,SMDPad,CuDef*
%ADD13R,0.700000X1.500000*%
G04 #@! TD*
G04 #@! TA.AperFunction,BGAPad,CuDef*
%ADD14C,0.600000*%
G04 #@! TD*
G04 #@! TA.AperFunction,SMDPad,CuDef*
%ADD15R,1.500000X1.500000*%
G04 #@! TD*
G04 #@! TA.AperFunction,SMDPad,CuDef*
%ADD16R,0.600000X0.600000*%
G04 #@! TD*
G04 #@! TA.AperFunction,SMDPad,CuDef*
%ADD17R,2.950000X2.400000*%
G04 #@! TD*
G04 #@! TA.AperFunction,SMDPad,CuDef*
%ADD18R,2.650000X2.400000*%
G04 #@! TD*
G04 #@! TA.AperFunction,ComponentPad*
%ADD19R,2.781300X2.781300*%
G04 #@! TD*
G04 #@! TA.AperFunction,SMDPad,CuDef*
%ADD20R,4.064000X4.064000*%
G04 #@! TD*
G04 #@! TA.AperFunction,SMDPad,CuDef*
%ADD21R,1.450000X1.150000*%
G04 #@! TD*
G04 #@! TA.AperFunction,SMDPad,CuDef*
%ADD22R,1.150000X1.450000*%
G04 #@! TD*
G04 #@! TA.AperFunction,SMDPad,CuDef*
%ADD23R,1.500000X1.300000*%
G04 #@! TD*
G04 #@! TA.AperFunction,SMDPad,CuDef*
%ADD24R,1.300000X1.500000*%
G04 #@! TD*
G04 #@! TA.AperFunction,SMDPad,CuDef*
%ADD25R,1.000000X1.100000*%
G04 #@! TD*
G04 #@! TA.AperFunction,SMDPad,CuDef*
%ADD26R,0.940000X0.270000*%
G04 #@! TD*
G04 #@! TA.AperFunction,SMDPad,CuDef*
%ADD27R,1.020000X0.270000*%
G04 #@! TD*
G04 #@! TA.AperFunction,SMDPad,CuDef*
%ADD28C,0.250000*%
G04 #@! TD*
G04 #@! TA.AperFunction,Conductor*
%ADD29C,0.100000*%
G04 #@! TD*
G04 #@! TA.AperFunction,SMDPad,CuDef*
%ADD30R,2.790000X1.520000*%
G04 #@! TD*
G04 #@! TA.AperFunction,ComponentPad*
%ADD31C,2.000000*%
G04 #@! TD*
G04 #@! TA.AperFunction,SMDPad,CuDef*
%ADD32R,1.320800X0.558800*%
G04 #@! TD*
G04 #@! TA.AperFunction,ViaPad*
%ADD33C,0.812800*%
G04 #@! TD*
G04 #@! TA.AperFunction,Conductor*
%ADD34C,0.508000*%
G04 #@! TD*
G04 #@! TA.AperFunction,Conductor*
%ADD35C,0.203200*%
G04 #@! TD*
G04 #@! TA.AperFunction,Conductor*
%ADD36C,0.152400*%
G04 #@! TD*
G04 APERTURE END LIST*
D10*
G04 #@! TO.P,Q1,9*
G04 #@! TO.N,Net-(Q1-Pad9)*
X143925000Y-79721000D03*
X143925000Y-80371000D03*
X143925000Y-81021000D03*
X143925000Y-81671000D03*
D11*
G04 #@! TO.P,Q1,4*
G04 #@! TO.N,Net-(Q1-Pad4)*
X140945000Y-81671000D03*
G04 #@! TO.P,Q1,2*
G04 #@! TO.N,GND*
X140945000Y-80371000D03*
D12*
G04 #@! TO.P,Q1,9*
G04 #@! TO.N,Net-(Q1-Pad9)*
X142770000Y-80696000D03*
D11*
G04 #@! TO.P,Q1,1*
G04 #@! TO.N,GND*
X140945000Y-79721000D03*
G04 #@! TD*
G04 #@! TO.P,Q2,1*
G04 #@! TO.N,Net-(BT1-Pad2)*
X140945000Y-75657000D03*
D12*
G04 #@! TO.P,Q2,9*
G04 #@! TO.N,Net-(Q1-Pad9)*
X142770000Y-76632000D03*
D11*
G04 #@! TO.P,Q2,2*
G04 #@! TO.N,Net-(BT1-Pad2)*
X140945000Y-76307000D03*
G04 #@! TO.P,Q2,4*
G04 #@! TO.N,Net-(Q2-Pad4)*
X140945000Y-77607000D03*
D10*
G04 #@! TO.P,Q2,9*
G04 #@! TO.N,Net-(Q1-Pad9)*
X143925000Y-77607000D03*
X143925000Y-76957000D03*
X143925000Y-76307000D03*
X143925000Y-75657000D03*
G04 #@! TD*
D13*
G04 #@! TO.P,U2,1*
G04 #@! TO.N,N/C*
X135344000Y-106500000D03*
G04 #@! TO.P,U2,2*
X136444000Y-106500000D03*
G04 #@! TO.P,U2,3*
X137544000Y-106500000D03*
G04 #@! TO.P,U2,4*
X138644000Y-106500000D03*
G04 #@! TO.P,U2,5*
G04 #@! TO.N,Net-(CX1-Pad1)*
X139744000Y-106500000D03*
G04 #@! TO.P,U2,6*
G04 #@! TO.N,Net-(CX2-Pad1)*
X140844000Y-106500000D03*
G04 #@! TO.P,U2,7*
G04 #@! TO.N,N/C*
X141944000Y-106500000D03*
G04 #@! TO.P,U2,8*
X143044000Y-106500000D03*
G04 #@! TO.P,U2,9*
G04 #@! TO.N,VCC*
X143044000Y-92500000D03*
G04 #@! TO.P,U2,10*
G04 #@! TO.N,GND*
X141944000Y-92500000D03*
G04 #@! TO.P,U2,11*
G04 #@! TO.N,N/C*
X140844000Y-92500000D03*
G04 #@! TO.P,U2,12*
X139744000Y-92500000D03*
G04 #@! TO.P,U2,13*
X138644000Y-92500000D03*
G04 #@! TO.P,U2,14*
X137544000Y-92500000D03*
G04 #@! TO.P,U2,15*
G04 #@! TO.N,Net-(D1-Pad2)*
X136444000Y-92500000D03*
G04 #@! TO.P,U2,16*
G04 #@! TO.N,Net-(D1-Pad1)*
X135344000Y-92500000D03*
D14*
G04 #@! TO.P,U2,A5*
G04 #@! TO.N,N/C*
X142144000Y-101750000D03*
G04 #@! TO.P,U2,B5*
X142144000Y-100250000D03*
G04 #@! TO.P,U2,C5*
X142144000Y-98750000D03*
G04 #@! TO.P,U2,D5*
G04 #@! TO.N,Net-(U1-Pad16)*
X142144000Y-97250000D03*
G04 #@! TO.P,U2,A4*
G04 #@! TO.N,Net-(CX3-Pad1)*
X140944000Y-101750000D03*
G04 #@! TO.P,U2,B4*
G04 #@! TO.N,N/C*
X140944000Y-100250000D03*
G04 #@! TO.P,U2,C4*
X140944000Y-98750000D03*
G04 #@! TO.P,U2,D4*
X140944000Y-97250000D03*
G04 #@! TO.P,U2,A3*
X139744000Y-101750000D03*
G04 #@! TO.P,U2,B3*
X139744000Y-100250000D03*
G04 #@! TO.P,U2,C3*
X139744000Y-98750000D03*
G04 #@! TO.P,U2,D3*
X139744000Y-97250000D03*
G04 #@! TO.P,U2,A2*
X138544000Y-101750000D03*
G04 #@! TO.P,U2,B2*
X138544000Y-100250000D03*
G04 #@! TO.P,U2,C2*
X138544000Y-98750000D03*
G04 #@! TO.P,U2,D2*
X138544000Y-97250000D03*
G04 #@! TO.P,U2,A1*
X137344000Y-101750000D03*
G04 #@! TO.P,U2,A0*
G04 #@! TO.N,GND*
X136144000Y-101750000D03*
G04 #@! TO.P,U2,B0*
X136144000Y-100250000D03*
G04 #@! TO.P,U2,B1*
G04 #@! TO.N,N/C*
X137344000Y-100250000D03*
G04 #@! TO.P,U2,C1*
X137344000Y-98750000D03*
G04 #@! TO.P,U2,C0*
G04 #@! TO.N,GND*
X136144000Y-98750000D03*
G04 #@! TO.P,U2,D0*
X136144000Y-97250000D03*
G04 #@! TO.P,U2,D1*
G04 #@! TO.N,N/C*
X137344000Y-97250000D03*
D15*
G04 #@! TO.P,U2,F0*
G04 #@! TO.N,GND*
X134144000Y-102870000D03*
G04 #@! TO.P,U2,F1*
X134144000Y-100620000D03*
G04 #@! TO.P,U2,F2*
X134144000Y-98370000D03*
G04 #@! TO.P,U2,F3*
X134144000Y-96120000D03*
D14*
G04 #@! TO.P,U2,Z5*
G04 #@! TO.N,N/C*
X142144000Y-103250000D03*
G04 #@! TO.P,U2,Z4*
X140944000Y-103250000D03*
G04 #@! TO.P,U2,Z3*
X139744000Y-103250000D03*
G04 #@! TO.P,U2,Z2*
X138544000Y-103250000D03*
G04 #@! TO.P,U2,Z1*
X137344000Y-103250000D03*
G04 #@! TO.P,U2,Z0*
X136144000Y-103250000D03*
G04 #@! TO.P,U2,E5*
X142144000Y-95750000D03*
G04 #@! TO.P,U2,E4*
X140944000Y-95750000D03*
G04 #@! TO.P,U2,E3*
X139744000Y-95750000D03*
G04 #@! TO.P,U2,E2*
X138544000Y-95750000D03*
G04 #@! TO.P,U2,E1*
X137344000Y-95750000D03*
G04 #@! TO.P,U2,E0*
X136144000Y-95750000D03*
G04 #@! TO.P,U2,A6*
G04 #@! TO.N,Net-(U1-Pad6)*
X143344000Y-101750000D03*
G04 #@! TO.P,U2,B6*
G04 #@! TO.N,Net-(U1-Pad4)*
X143344000Y-100250000D03*
G04 #@! TO.P,U2,C6*
G04 #@! TO.N,Net-(U1-Pad1)*
X143344000Y-98750000D03*
G04 #@! TO.P,U2,D6*
G04 #@! TO.N,Net-(U1-Pad10)*
X143344000Y-97250000D03*
G04 #@! TO.P,U2,Z6*
G04 #@! TO.N,N/C*
X143344000Y-103250000D03*
G04 #@! TO.P,U2,E6*
G04 #@! TO.N,Net-(R6-Pad2)*
X143344000Y-95750000D03*
G04 #@! TO.P,U2,F5*
G04 #@! TO.N,Net-(L1-Pad2)*
X142144000Y-94250000D03*
G04 #@! TO.P,U2,F4*
G04 #@! TO.N,Net-(R7-Pad1)*
X140944000Y-94250000D03*
D16*
G04 #@! TO.P,U2,F6*
G04 #@! TO.N,N/C*
X143344000Y-94250000D03*
G04 #@! TD*
D17*
G04 #@! TO.P,J1,1*
G04 #@! TO.N,GND*
X146725000Y-75538000D03*
D18*
G04 #@! TO.P,J1,2*
G04 #@! TO.N,Net-(C6-Pad1)*
X146575000Y-85238000D03*
D17*
G04 #@! TO.P,J1,3*
X153275000Y-78238000D03*
G04 #@! TD*
D19*
G04 #@! TO.P,BT1,1*
G04 #@! TO.N,+BATT*
X165748000Y-87300000D03*
D20*
G04 #@! TO.P,BT1,2*
G04 #@! TO.N,Net-(BT1-Pad2)*
X165748000Y-100000000D03*
D19*
G04 #@! TO.P,BT1,3*
G04 #@! TO.N,N/C*
X165748000Y-112700000D03*
G04 #@! TD*
D21*
G04 #@! TO.P,C1,1*
G04 #@! TO.N,VCC*
X143044000Y-89216000D03*
G04 #@! TO.P,C1,2*
G04 #@! TO.N,GND*
X143044000Y-87416000D03*
G04 #@! TD*
G04 #@! TO.P,C2,2*
G04 #@! TO.N,GND*
X158890000Y-116140000D03*
G04 #@! TO.P,C2,1*
G04 #@! TO.N,VCC*
X158890000Y-114340000D03*
G04 #@! TD*
G04 #@! TO.P,C3,2*
G04 #@! TO.N,GND*
X146444000Y-105980000D03*
G04 #@! TO.P,C3,1*
G04 #@! TO.N,VCC*
X146444000Y-104180000D03*
G04 #@! TD*
G04 #@! TO.P,C4,2*
G04 #@! TO.N,GND*
X148984000Y-105980000D03*
G04 #@! TO.P,C4,1*
G04 #@! TO.N,Net-(C4-Pad1)*
X148984000Y-104180000D03*
G04 #@! TD*
G04 #@! TO.P,C5,1*
G04 #@! TO.N,VCC*
X151524000Y-104180000D03*
G04 #@! TO.P,C5,2*
G04 #@! TO.N,GND*
X151524000Y-105980000D03*
G04 #@! TD*
D22*
G04 #@! TO.P,C6,1*
G04 #@! TO.N,Net-(C6-Pad1)*
X157400000Y-81530000D03*
G04 #@! TO.P,C6,2*
G04 #@! TO.N,GND*
X159200000Y-81530000D03*
G04 #@! TD*
G04 #@! TO.P,C7,2*
G04 #@! TO.N,GND*
X163940000Y-83710000D03*
G04 #@! TO.P,C7,1*
G04 #@! TO.N,+BATT*
X165740000Y-83710000D03*
G04 #@! TD*
D21*
G04 #@! TO.P,C8,1*
G04 #@! TO.N,Net-(C8-Pad1)*
X134780000Y-81720000D03*
G04 #@! TO.P,C8,2*
G04 #@! TO.N,Net-(BT1-Pad2)*
X134780000Y-79920000D03*
G04 #@! TD*
G04 #@! TO.P,C9,2*
G04 #@! TO.N,GND*
X139332000Y-87416000D03*
G04 #@! TO.P,C9,1*
G04 #@! TO.N,+BATT*
X139332000Y-89216000D03*
G04 #@! TD*
D22*
G04 #@! TO.P,CX1,1*
G04 #@! TO.N,Net-(CX1-Pad1)*
X135914000Y-109906000D03*
G04 #@! TO.P,CX1,2*
G04 #@! TO.N,GND*
X134114000Y-109906000D03*
G04 #@! TD*
G04 #@! TO.P,CX2,2*
G04 #@! TO.N,GND*
X134114000Y-114732000D03*
G04 #@! TO.P,CX2,1*
G04 #@! TO.N,Net-(CX2-Pad1)*
X135914000Y-114732000D03*
G04 #@! TD*
G04 #@! TO.P,CX3,1*
G04 #@! TO.N,Net-(CX3-Pad1)*
X135914000Y-119812000D03*
G04 #@! TO.P,CX3,2*
G04 #@! TO.N,GND*
X134114000Y-119812000D03*
G04 #@! TD*
D23*
G04 #@! TO.P,L1,1*
G04 #@! TO.N,VCC*
X145936000Y-93020000D03*
G04 #@! TO.P,L1,2*
G04 #@! TO.N,Net-(L1-Pad2)*
X145936000Y-94920000D03*
G04 #@! TD*
D24*
G04 #@! TO.P,R1,1*
G04 #@! TO.N,Net-(R1-Pad1)*
X152474000Y-87416000D03*
G04 #@! TO.P,R1,2*
G04 #@! TO.N,GND*
X150574000Y-87416000D03*
G04 #@! TD*
D25*
G04 #@! TO.P,R2,2*
G04 #@! TO.N,GND*
X141110000Y-85356000D03*
G04 #@! TO.P,R2,1*
G04 #@! TO.N,Net-(Q1-Pad4)*
X141110000Y-83656000D03*
G04 #@! TD*
G04 #@! TO.P,R3,1*
G04 #@! TO.N,Net-(Q2-Pad4)*
X139078000Y-77736000D03*
G04 #@! TO.P,R3,2*
G04 #@! TO.N,Net-(BT1-Pad2)*
X139078000Y-76036000D03*
G04 #@! TD*
D24*
G04 #@! TO.P,R4,2*
G04 #@! TO.N,GND*
X139332000Y-85268000D03*
G04 #@! TO.P,R4,1*
G04 #@! TO.N,Net-(R4-Pad1)*
X137432000Y-85268000D03*
G04 #@! TD*
D23*
G04 #@! TO.P,R5,1*
G04 #@! TO.N,+BATT*
X134760000Y-87488000D03*
G04 #@! TO.P,R5,2*
G04 #@! TO.N,Net-(C8-Pad1)*
X134760000Y-85588000D03*
G04 #@! TD*
D26*
G04 #@! TO.P,U5,6*
G04 #@! TO.N,Net-(R4-Pad1)*
X137686000Y-82212000D03*
G04 #@! TO.P,U5,5*
G04 #@! TO.N,Net-(C8-Pad1)*
X137686000Y-81712000D03*
G04 #@! TO.P,U5,4*
G04 #@! TO.N,Net-(BT1-Pad2)*
X137686000Y-81212000D03*
G04 #@! TO.P,U5,3*
G04 #@! TO.N,Net-(Q2-Pad4)*
X138946000Y-81212000D03*
G04 #@! TO.P,U5,2*
G04 #@! TO.N,Net-(Q1-Pad4)*
X138946000Y-81712000D03*
D27*
G04 #@! TO.P,U5,1*
G04 #@! TO.N,N/C*
X138906000Y-82212000D03*
G04 #@! TD*
D28*
G04 #@! TO.P,U1,5*
G04 #@! TO.N,N/C*
X149246000Y-101274000D03*
D29*
G04 #@! TD*
G04 #@! TO.N,N/C*
G04 #@! TO.C,U1*
G36*
X149371000Y-101524000D02*
X149121000Y-101524000D01*
X149121000Y-101024000D01*
X149371000Y-101024000D01*
X149371000Y-101524000D01*
X149371000Y-101524000D01*
G37*
D28*
G04 #@! TO.P,U1,6*
G04 #@! TO.N,Net-(U1-Pad6)*
X149746000Y-101274000D03*
D29*
G04 #@! TD*
G04 #@! TO.N,Net-(U1-Pad6)*
G04 #@! TO.C,U1*
G36*
X149871000Y-101524000D02*
X149621000Y-101524000D01*
X149621000Y-101024000D01*
X149871000Y-101024000D01*
X149871000Y-101524000D01*
X149871000Y-101524000D01*
G37*
D28*
G04 #@! TO.P,U1,7*
G04 #@! TO.N,Net-(C4-Pad1)*
X150246000Y-101274000D03*
D29*
G04 #@! TD*
G04 #@! TO.N,Net-(C4-Pad1)*
G04 #@! TO.C,U1*
G36*
X150371000Y-101524000D02*
X150121000Y-101524000D01*
X150121000Y-101024000D01*
X150371000Y-101024000D01*
X150371000Y-101524000D01*
X150371000Y-101524000D01*
G37*
D28*
G04 #@! TO.P,U1,8*
G04 #@! TO.N,GND*
X150746000Y-101274000D03*
D29*
G04 #@! TD*
G04 #@! TO.N,GND*
G04 #@! TO.C,U1*
G36*
X150871000Y-101524000D02*
X150621000Y-101524000D01*
X150621000Y-101024000D01*
X150871000Y-101024000D01*
X150871000Y-101524000D01*
X150871000Y-101524000D01*
G37*
D28*
G04 #@! TO.P,U1,1*
G04 #@! TO.N,Net-(U1-Pad1)*
X148671000Y-99274000D03*
D29*
G04 #@! TD*
G04 #@! TO.N,Net-(U1-Pad1)*
G04 #@! TO.C,U1*
G36*
X148871000Y-99399000D02*
X148471000Y-99399000D01*
X148471000Y-99149000D01*
X148871000Y-99149000D01*
X148871000Y-99399000D01*
X148871000Y-99399000D01*
G37*
D28*
G04 #@! TO.P,U1,2*
G04 #@! TO.N,N/C*
X148671000Y-99774000D03*
D29*
G04 #@! TD*
G04 #@! TO.N,N/C*
G04 #@! TO.C,U1*
G36*
X148871000Y-99899000D02*
X148471000Y-99899000D01*
X148471000Y-99649000D01*
X148871000Y-99649000D01*
X148871000Y-99899000D01*
X148871000Y-99899000D01*
G37*
D28*
G04 #@! TO.P,U1,3*
G04 #@! TO.N,VCC*
X148671000Y-100274000D03*
D29*
G04 #@! TD*
G04 #@! TO.N,VCC*
G04 #@! TO.C,U1*
G36*
X148871000Y-100399000D02*
X148471000Y-100399000D01*
X148471000Y-100149000D01*
X148871000Y-100149000D01*
X148871000Y-100399000D01*
X148871000Y-100399000D01*
G37*
D28*
G04 #@! TO.P,U1,4*
G04 #@! TO.N,Net-(U1-Pad4)*
X148671000Y-100774000D03*
D29*
G04 #@! TD*
G04 #@! TO.N,Net-(U1-Pad4)*
G04 #@! TO.C,U1*
G36*
X148871000Y-100899000D02*
X148471000Y-100899000D01*
X148471000Y-100649000D01*
X148871000Y-100649000D01*
X148871000Y-100899000D01*
X148871000Y-100899000D01*
G37*
D28*
G04 #@! TO.P,U1,13*
G04 #@! TO.N,N/C*
X150746000Y-98774000D03*
D29*
G04 #@! TD*
G04 #@! TO.N,N/C*
G04 #@! TO.C,U1*
G36*
X150871000Y-99024000D02*
X150621000Y-99024000D01*
X150621000Y-98524000D01*
X150871000Y-98524000D01*
X150871000Y-99024000D01*
X150871000Y-99024000D01*
G37*
D28*
G04 #@! TO.P,U1,16*
G04 #@! TO.N,Net-(U1-Pad16)*
X149246000Y-98774000D03*
D29*
G04 #@! TD*
G04 #@! TO.N,Net-(U1-Pad16)*
G04 #@! TO.C,U1*
G36*
X149371000Y-99024000D02*
X149121000Y-99024000D01*
X149121000Y-98524000D01*
X149371000Y-98524000D01*
X149371000Y-99024000D01*
X149371000Y-99024000D01*
G37*
D28*
G04 #@! TO.P,U1,14*
G04 #@! TO.N,GND*
X150246000Y-98774000D03*
D29*
G04 #@! TD*
G04 #@! TO.N,GND*
G04 #@! TO.C,U1*
G36*
X150371000Y-99024000D02*
X150121000Y-99024000D01*
X150121000Y-98524000D01*
X150371000Y-98524000D01*
X150371000Y-99024000D01*
X150371000Y-99024000D01*
G37*
D28*
G04 #@! TO.P,U1,15*
G04 #@! TO.N,N/C*
X149746000Y-98774000D03*
D29*
G04 #@! TD*
G04 #@! TO.N,N/C*
G04 #@! TO.C,U1*
G36*
X149871000Y-99024000D02*
X149621000Y-99024000D01*
X149621000Y-98524000D01*
X149871000Y-98524000D01*
X149871000Y-99024000D01*
X149871000Y-99024000D01*
G37*
D28*
G04 #@! TO.P,U1,11*
G04 #@! TO.N,N/C*
X151321000Y-99774000D03*
D29*
G04 #@! TD*
G04 #@! TO.N,N/C*
G04 #@! TO.C,U1*
G36*
X151521000Y-99899000D02*
X151121000Y-99899000D01*
X151121000Y-99649000D01*
X151521000Y-99649000D01*
X151521000Y-99899000D01*
X151521000Y-99899000D01*
G37*
D28*
G04 #@! TO.P,U1,10*
G04 #@! TO.N,Net-(U1-Pad10)*
X151321000Y-100274000D03*
D29*
G04 #@! TD*
G04 #@! TO.N,Net-(U1-Pad10)*
G04 #@! TO.C,U1*
G36*
X151521000Y-100399000D02*
X151121000Y-100399000D01*
X151121000Y-100149000D01*
X151521000Y-100149000D01*
X151521000Y-100399000D01*
X151521000Y-100399000D01*
G37*
D28*
G04 #@! TO.P,U1,9*
G04 #@! TO.N,VCC*
X151321000Y-100774000D03*
D29*
G04 #@! TD*
G04 #@! TO.N,VCC*
G04 #@! TO.C,U1*
G36*
X151521000Y-100899000D02*
X151121000Y-100899000D01*
X151121000Y-100649000D01*
X151521000Y-100649000D01*
X151521000Y-100899000D01*
X151521000Y-100899000D01*
G37*
D28*
G04 #@! TO.P,U1,12*
G04 #@! TO.N,GND*
X151321000Y-99274000D03*
D29*
G04 #@! TD*
G04 #@! TO.N,GND*
G04 #@! TO.C,U1*
G36*
X151521000Y-99399000D02*
X151121000Y-99399000D01*
X151121000Y-99149000D01*
X151521000Y-99149000D01*
X151521000Y-99399000D01*
X151521000Y-99399000D01*
G37*
D30*
G04 #@! TO.P,U3,4*
G04 #@! TO.N,Net-(CX3-Pad1)*
X137930000Y-122224000D03*
G04 #@! TO.P,U3,6*
G04 #@! TO.N,Net-(CX1-Pad1)*
X137930000Y-112064000D03*
G04 #@! TO.P,U3,1*
G04 #@! TO.N,VCC*
X155460000Y-112064000D03*
G04 #@! TO.P,U3,5*
G04 #@! TO.N,Net-(CX2-Pad1)*
X137930000Y-117144000D03*
G04 #@! TO.P,U3,3*
G04 #@! TO.N,GND*
X155460000Y-122224000D03*
G04 #@! TO.P,U3,2*
G04 #@! TO.N,N/C*
X155460000Y-117144000D03*
G04 #@! TD*
D31*
G04 #@! TO.P,D1,1*
G04 #@! TO.N,Net-(D1-Pad1)*
X132160000Y-90480000D03*
G04 #@! TO.P,D1,2*
G04 #@! TO.N,Net-(D1-Pad2)*
X132160000Y-87980000D03*
G04 #@! TO.P,D1,3*
G04 #@! TO.N,VCC*
X132160000Y-85480000D03*
G04 #@! TO.P,D1,4*
G04 #@! TO.N,GND*
X132160000Y-82980000D03*
G04 #@! TD*
D32*
G04 #@! TO.P,U4,1*
G04 #@! TO.N,Net-(R6-Pad2)*
X160131600Y-85699800D03*
G04 #@! TO.P,U4,2*
G04 #@! TO.N,GND*
X160131600Y-84760000D03*
G04 #@! TO.P,U4,3*
G04 #@! TO.N,+BATT*
X160131600Y-83820200D03*
G04 #@! TO.P,U4,4*
G04 #@! TO.N,Net-(C6-Pad1)*
X157388400Y-83820200D03*
G04 #@! TO.P,U4,5*
G04 #@! TO.N,Net-(R1-Pad1)*
X157388400Y-85699800D03*
G04 #@! TD*
D23*
G04 #@! TO.P,R6,1*
G04 #@! TO.N,VCC*
X148480000Y-89190000D03*
G04 #@! TO.P,R6,2*
G04 #@! TO.N,Net-(R6-Pad2)*
X148480000Y-91090000D03*
G04 #@! TD*
D24*
G04 #@! TO.P,R7,2*
G04 #@! TO.N,+BATT*
X152450000Y-90700000D03*
G04 #@! TO.P,R7,1*
G04 #@! TO.N,Net-(R7-Pad1)*
X150550000Y-90700000D03*
G04 #@! TD*
D33*
G04 #@! TO.N,VCC*
X151520000Y-109020000D03*
G04 #@! TO.N,GND*
X162440000Y-86110000D03*
G04 #@! TO.N,+BATT*
X154422000Y-89174000D03*
G04 #@! TO.N,Net-(BT1-Pad2)*
X136352000Y-80912000D03*
X168242000Y-80912000D03*
G04 #@! TO.N,Net-(R7-Pad1)*
X150550000Y-89050000D03*
X139402000Y-94264000D03*
G04 #@! TO.N,GND*
X136434000Y-78268000D03*
X145474000Y-78918000D03*
G04 #@! TO.N,Net-(D1-Pad2)*
X136460000Y-94230000D03*
G04 #@! TO.N,Net-(D1-Pad1)*
X135380000Y-94220000D03*
G04 #@! TO.N,+BATT*
X161270000Y-82720000D03*
G04 #@! TO.N,GND*
X140094000Y-78918000D03*
G04 #@! TO.N,+BATT*
X134760000Y-89170000D03*
G04 #@! TO.N,VCC*
X145936000Y-89216000D03*
G04 #@! TO.N,GND*
X160922000Y-116140000D03*
X153302000Y-107366000D03*
G04 #@! TO.N,+BATT*
X139332000Y-90694000D03*
G04 #@! TO.N,Net-(U1-Pad10)*
X144920000Y-97206000D03*
X152286000Y-100254000D03*
G04 #@! TO.N,GND*
X152032000Y-97968000D03*
G04 #@! TO.N,VCC*
X146444000Y-102794000D03*
X151524000Y-102794000D03*
X146444000Y-100000000D03*
G04 #@! TO.N,Net-(D1-Pad1)*
X135380000Y-94220000D03*
X135380000Y-94220000D03*
G04 #@! TD*
D34*
G04 #@! TO.N,Net-(Q1-Pad9)*
X142770000Y-80696000D02*
X142770000Y-76632000D01*
D35*
G04 #@! TO.N,GND*
X151321000Y-98679000D02*
X152032000Y-97968000D01*
X151321000Y-99274000D02*
X151321000Y-98679000D01*
X151457264Y-97968000D02*
X152032000Y-97968000D01*
X150679746Y-97968000D02*
X151457264Y-97968000D01*
X150246000Y-98401746D02*
X150679746Y-97968000D01*
X150246000Y-98774000D02*
X150246000Y-98401746D01*
X136144000Y-101750000D02*
X136144000Y-100250000D01*
X136144000Y-98750000D02*
X136144000Y-97250000D01*
D34*
X134144000Y-101916800D02*
X134144000Y-100620000D01*
X134144000Y-102870000D02*
X134144000Y-101916800D01*
X134144000Y-98370000D02*
X134144000Y-100620000D01*
D35*
X136144000Y-100250000D02*
X136144000Y-98750000D01*
X134188000Y-97250000D02*
X134144000Y-97206000D01*
X136144000Y-97250000D02*
X134188000Y-97250000D01*
D34*
X134144000Y-98370000D02*
X134144000Y-97206000D01*
X134144000Y-97206000D02*
X134144000Y-96120000D01*
X156095000Y-122224000D02*
X155460000Y-122224000D01*
X158890000Y-119429000D02*
X156095000Y-122224000D01*
X158890000Y-116140000D02*
X158890000Y-119429000D01*
X134114000Y-119812000D02*
X134114000Y-114732000D01*
X134114000Y-114732000D02*
X134114000Y-109906000D01*
X134114000Y-102900000D02*
X134144000Y-102870000D01*
X134114000Y-109906000D02*
X134114000Y-102900000D01*
X146444000Y-105980000D02*
X148984000Y-105980000D01*
X151916000Y-105980000D02*
X153302000Y-107366000D01*
X151524000Y-105980000D02*
X151916000Y-105980000D01*
D35*
X150254000Y-103517118D02*
X150254000Y-105980000D01*
X150746000Y-103025118D02*
X150254000Y-103517118D01*
X150746000Y-101274000D02*
X150746000Y-103025118D01*
D34*
X148984000Y-105980000D02*
X150254000Y-105980000D01*
X150254000Y-105980000D02*
X151524000Y-105980000D01*
X158890000Y-116140000D02*
X160922000Y-116140000D01*
X138099000Y-87416000D02*
X139332000Y-87416000D01*
X134144000Y-91371000D02*
X138099000Y-87416000D01*
X134144000Y-96120000D02*
X134144000Y-91371000D01*
X141944000Y-91592798D02*
X141207202Y-90856000D01*
X141944000Y-92500000D02*
X141944000Y-91592798D01*
X141207202Y-87513202D02*
X141110000Y-87416000D01*
X141207202Y-90856000D02*
X141207202Y-87513202D01*
X139332000Y-87416000D02*
X141110000Y-87416000D01*
X141110000Y-87416000D02*
X143044000Y-87416000D01*
X139332000Y-87416000D02*
X139332000Y-85268000D01*
D35*
X140945000Y-80371000D02*
X140945000Y-79721000D01*
D34*
X139420000Y-85356000D02*
X139332000Y-85268000D01*
X141110000Y-85356000D02*
X139420000Y-85356000D01*
X142118000Y-85356000D02*
X146725000Y-80749000D01*
X141110000Y-85356000D02*
X142118000Y-85356000D01*
X146725000Y-77367000D02*
X146725000Y-75538000D01*
D35*
X140897000Y-79721000D02*
X140094000Y-78918000D01*
X140945000Y-79721000D02*
X140897000Y-79721000D01*
D34*
X146698000Y-75511000D02*
X146725000Y-75538000D01*
X150574000Y-87416000D02*
X143044000Y-87416000D01*
X163940000Y-83560000D02*
X163940000Y-83710000D01*
X161910000Y-81530000D02*
X163940000Y-83560000D01*
X159200000Y-81530000D02*
X161910000Y-81530000D01*
X162890000Y-84760000D02*
X163940000Y-83710000D01*
X150574000Y-86158000D02*
X150574000Y-87416000D01*
X151972000Y-84760000D02*
X150574000Y-86158000D01*
X160131600Y-84760000D02*
X151972000Y-84760000D01*
X160131600Y-84760000D02*
X161950000Y-84760000D01*
X132190000Y-82950000D02*
X132160000Y-82980000D01*
X132160000Y-82980000D02*
X132160000Y-80332798D01*
X134224798Y-78268000D02*
X136434000Y-78268000D01*
X132160000Y-80332798D02*
X134224798Y-78268000D01*
X146050736Y-78920000D02*
X146725000Y-78920000D01*
X146048736Y-78918000D02*
X146050736Y-78920000D01*
X145474000Y-78918000D02*
X146048736Y-78918000D01*
X146725000Y-80749000D02*
X146725000Y-78920000D01*
X146725000Y-78920000D02*
X146725000Y-77367000D01*
X162440000Y-85535264D02*
X162440000Y-84760000D01*
X162440000Y-86110000D02*
X162440000Y-85535264D01*
X161950000Y-84760000D02*
X162440000Y-84760000D01*
X162440000Y-84760000D02*
X162890000Y-84760000D01*
G04 #@! TO.N,+BATT*
X139332000Y-90694000D02*
X139332000Y-89216000D01*
X134760000Y-89170000D02*
X134760000Y-87488000D01*
X165748000Y-83718000D02*
X165740000Y-83710000D01*
X165748000Y-87300000D02*
X165748000Y-83718000D01*
X160169800Y-83820200D02*
X161270000Y-82720000D01*
X160131600Y-83820200D02*
X160169800Y-83820200D01*
X152896000Y-90700000D02*
X154422000Y-89174000D01*
X152450000Y-90700000D02*
X152896000Y-90700000D01*
D35*
G04 #@! TO.N,VCC*
X151524000Y-100977000D02*
X151321000Y-100774000D01*
X151524000Y-102794000D02*
X151524000Y-100977000D01*
X146444000Y-104180000D02*
X146444000Y-102794000D01*
X151524000Y-104180000D02*
X151524000Y-102794000D01*
X143044000Y-89314000D02*
X143142000Y-89216000D01*
D34*
X156614000Y-112064000D02*
X158890000Y-114340000D01*
X155460000Y-112064000D02*
X156614000Y-112064000D01*
X143044000Y-92500000D02*
X143044000Y-89216000D01*
X145936000Y-93020000D02*
X145936000Y-89216000D01*
X143044000Y-89216000D02*
X145936000Y-89216000D01*
X143564000Y-93020000D02*
X143044000Y-92500000D01*
X145936000Y-93020000D02*
X143564000Y-93020000D01*
D35*
X146718000Y-100274000D02*
X146444000Y-100000000D01*
X148671000Y-100274000D02*
X146718000Y-100274000D01*
D34*
X145962000Y-89190000D02*
X145936000Y-89216000D01*
X148480000Y-89190000D02*
X145962000Y-89190000D01*
X151926399Y-109426399D02*
X151520000Y-109020000D01*
X154564000Y-112064000D02*
X151926399Y-109426399D01*
X155460000Y-112064000D02*
X154564000Y-112064000D01*
D35*
G04 #@! TO.N,Net-(C4-Pad1)*
X150254000Y-101282000D02*
X150246000Y-101274000D01*
X150254000Y-101779189D02*
X150254000Y-101282000D01*
X148984000Y-103049189D02*
X150254000Y-101779189D01*
X148984000Y-104180000D02*
X148984000Y-103049189D01*
D34*
G04 #@! TO.N,Net-(C6-Pad1)*
X157388400Y-81541600D02*
X157400000Y-81530000D01*
X157388400Y-83820200D02*
X157388400Y-81541600D01*
X155258000Y-78238000D02*
X153275000Y-78238000D01*
X155341000Y-78238000D02*
X155258000Y-78238000D01*
X157400000Y-80297000D02*
X155341000Y-78238000D01*
X157400000Y-81530000D02*
X157400000Y-80297000D01*
X151867000Y-78238000D02*
X153275000Y-78238000D01*
X146575000Y-83530000D02*
X151867000Y-78238000D01*
X146575000Y-85238000D02*
X146575000Y-83530000D01*
G04 #@! TO.N,Net-(C8-Pad1)*
X134760000Y-81740000D02*
X134780000Y-81720000D01*
X134760000Y-85588000D02*
X134760000Y-81740000D01*
D35*
X136304200Y-81720000D02*
X134780000Y-81720000D01*
X137686000Y-81712000D02*
X136312200Y-81712000D01*
X136312200Y-81712000D02*
X136304200Y-81720000D01*
D34*
G04 #@! TO.N,Net-(CX1-Pad1)*
X139744000Y-107758000D02*
X139744000Y-106500000D01*
X139744000Y-108982000D02*
X139744000Y-107758000D01*
X137930000Y-110796000D02*
X139744000Y-108982000D01*
X137930000Y-112064000D02*
X137930000Y-110796000D01*
X137040000Y-109906000D02*
X135914000Y-109906000D01*
X137930000Y-110796000D02*
X137040000Y-109906000D01*
G04 #@! TO.N,Net-(CX2-Pad1)*
X140844000Y-107758000D02*
X140844000Y-106500000D01*
X140844000Y-116133000D02*
X140844000Y-107758000D01*
X139833000Y-117144000D02*
X140844000Y-116133000D01*
X137930000Y-117144000D02*
X139833000Y-117144000D01*
X137930000Y-116748000D02*
X135914000Y-114732000D01*
X137930000Y-117144000D02*
X137930000Y-116748000D01*
G04 #@! TO.N,Net-(CX3-Pad1)*
X139833000Y-122224000D02*
X144666000Y-117391000D01*
X137930000Y-122224000D02*
X139833000Y-122224000D01*
X144666000Y-117391000D02*
X144666000Y-103302000D01*
D35*
X141243999Y-102049999D02*
X140944000Y-101750000D01*
X141792399Y-102598399D02*
X141243999Y-102049999D01*
X143962399Y-102598399D02*
X141792399Y-102598399D01*
X144666000Y-103302000D02*
X143962399Y-102598399D01*
D34*
X137930000Y-121828000D02*
X135914000Y-119812000D01*
X137930000Y-122224000D02*
X137930000Y-121828000D01*
D35*
G04 #@! TO.N,Net-(L1-Pad2)*
X142814000Y-94920000D02*
X142144000Y-94250000D01*
X145936000Y-94920000D02*
X142814000Y-94920000D01*
G04 #@! TO.N,Net-(Q1-Pad4)*
X141110000Y-81836000D02*
X140945000Y-81671000D01*
X141110000Y-83656000D02*
X141110000Y-81836000D01*
X140904000Y-81712000D02*
X140945000Y-81671000D01*
X138946000Y-81712000D02*
X140904000Y-81712000D01*
G04 #@! TO.N,Net-(Q2-Pad4)*
X139207000Y-77607000D02*
X139078000Y-77736000D01*
X140945000Y-77607000D02*
X139207000Y-77607000D01*
X138946000Y-77868000D02*
X139078000Y-77736000D01*
X138946000Y-81212000D02*
X138946000Y-77868000D01*
D34*
G04 #@! TO.N,Net-(R1-Pad1)*
X157388400Y-86487200D02*
X157388400Y-85699800D01*
X156459600Y-87416000D02*
X157388400Y-86487200D01*
X152474000Y-87416000D02*
X156459600Y-87416000D01*
D35*
G04 #@! TO.N,Net-(R4-Pad1)*
X137300000Y-85268000D02*
X137432000Y-85268000D01*
X137432000Y-82466000D02*
X137686000Y-82212000D01*
X137432000Y-85268000D02*
X137432000Y-82466000D01*
G04 #@! TO.N,Net-(U1-Pad6)*
X149746000Y-101274000D02*
X149746000Y-101646254D01*
X143768264Y-101750000D02*
X143344000Y-101750000D01*
X144054263Y-102035999D02*
X143768264Y-101750000D01*
X149356255Y-102035999D02*
X144054263Y-102035999D01*
X149746000Y-101646254D02*
X149356255Y-102035999D01*
G04 #@! TO.N,Net-(U1-Pad1)*
X148147000Y-98750000D02*
X143344000Y-98750000D01*
X148671000Y-99274000D02*
X148147000Y-98750000D01*
G04 #@! TO.N,Net-(U1-Pad4)*
X143868000Y-100774000D02*
X143344000Y-100250000D01*
X148671000Y-100774000D02*
X143868000Y-100774000D01*
G04 #@! TO.N,Net-(U1-Pad16)*
X142443999Y-97549999D02*
X142144000Y-97250000D01*
X142858001Y-97964001D02*
X142443999Y-97549999D01*
X148211001Y-97964001D02*
X142858001Y-97964001D01*
X149021000Y-98774000D02*
X148211001Y-97964001D01*
X149246000Y-98774000D02*
X149021000Y-98774000D01*
G04 #@! TO.N,Net-(U1-Pad10)*
X152266000Y-100274000D02*
X152286000Y-100254000D01*
X151321000Y-100274000D02*
X152266000Y-100274000D01*
X144876000Y-97250000D02*
X144920000Y-97206000D01*
X143344000Y-97250000D02*
X144876000Y-97250000D01*
G04 #@! TO.N,Net-(R6-Pad2)*
X143344000Y-95750000D02*
X143884000Y-96290000D01*
D34*
X159750600Y-85699800D02*
X149160400Y-96290000D01*
X160131600Y-85699800D02*
X159750600Y-85699800D01*
X147600000Y-96290000D02*
X144890000Y-96290000D01*
D35*
X144890000Y-96290000D02*
X143884000Y-96290000D01*
G04 #@! TO.N,Net-(Q1-Pad9)*
X142770000Y-76632000D02*
X143923200Y-76632000D01*
D36*
X142770000Y-76454600D02*
X142770000Y-76632000D01*
X143567600Y-75657000D02*
X142770000Y-76454600D01*
X143925000Y-75657000D02*
X143567600Y-75657000D01*
D35*
X143925000Y-77607000D02*
X143925000Y-76957000D01*
X143925000Y-76957000D02*
X143925000Y-76307000D01*
X143925000Y-76307000D02*
X143925000Y-75657000D01*
X143925000Y-81671000D02*
X143925000Y-81021000D01*
X143925000Y-80371000D02*
X143925000Y-79721000D01*
X143925000Y-80697800D02*
X143925000Y-80730000D01*
X143923200Y-80696000D02*
X143925000Y-80697800D01*
X142770000Y-80696000D02*
X143923200Y-80696000D01*
X143925000Y-81021000D02*
X143925000Y-80730000D01*
X143925000Y-80730000D02*
X143925000Y-80371000D01*
G04 #@! TO.N,Net-(D1-Pad1)*
X135380000Y-92536000D02*
X135344000Y-92500000D01*
X135380000Y-94220000D02*
X135380000Y-92536000D01*
G04 #@! TO.N,Net-(D1-Pad2)*
X136460000Y-92516000D02*
X136444000Y-92500000D01*
X136460000Y-94230000D02*
X136460000Y-92516000D01*
G04 #@! TO.N,Net-(BT1-Pad2)*
X135708200Y-79920000D02*
X134780000Y-79920000D01*
X136732200Y-79920000D02*
X135708200Y-79920000D01*
X137686000Y-81212000D02*
X137686000Y-80873800D01*
D34*
X137344401Y-79863399D02*
X137010000Y-80197800D01*
X137344401Y-77512397D02*
X137344401Y-79863399D01*
X138820798Y-76036000D02*
X137344401Y-77512397D01*
X139078000Y-76036000D02*
X138820798Y-76036000D01*
D35*
X137686000Y-80873800D02*
X137010000Y-80197800D01*
X137010000Y-80197800D02*
X136732200Y-79920000D01*
D34*
X168242000Y-81486736D02*
X168242000Y-80912000D01*
X168242000Y-94966000D02*
X168242000Y-81486736D01*
X137010000Y-80254000D02*
X137010000Y-80197800D01*
X136352000Y-80912000D02*
X137010000Y-80254000D01*
D35*
X140939000Y-76036000D02*
X140945000Y-76030000D01*
X139078000Y-76036000D02*
X140939000Y-76036000D01*
X140945000Y-76307000D02*
X140945000Y-76030000D01*
X140945000Y-76030000D02*
X140945000Y-75657000D01*
D34*
X165748000Y-100000000D02*
X165748000Y-97460000D01*
X165748000Y-97460000D02*
X168242000Y-94966000D01*
G04 #@! TO.N,Net-(R6-Pad2)*
X148480000Y-92248000D02*
X148480000Y-96290000D01*
X148480000Y-91090000D02*
X148480000Y-92248000D01*
X149160400Y-96290000D02*
X148480000Y-96290000D01*
X148480000Y-96290000D02*
X147600000Y-96290000D01*
G04 #@! TO.N,Net-(R7-Pad1)*
X150550000Y-90700000D02*
X150550000Y-89050000D01*
X140930000Y-94264000D02*
X140944000Y-94250000D01*
X139402000Y-94264000D02*
X140930000Y-94264000D01*
G04 #@! TD*
M02*
