G04 #@! TF.GenerationSoftware,KiCad,Pcbnew,(5.0.1)-4*
G04 #@! TF.CreationDate,2019-01-22T16:06:35-05:00*
G04 #@! TF.ProjectId,puck_design,7075636B5F64657369676E2E6B696361,rev?*
G04 #@! TF.SameCoordinates,Original*
G04 #@! TF.FileFunction,Copper,L2,Bot,Signal*
G04 #@! TF.FilePolarity,Positive*
%FSLAX46Y46*%
G04 Gerber Fmt 4.6, Leading zero omitted, Abs format (unit mm)*
G04 Created by KiCad (PCBNEW (5.0.1)-4) date 2019-01-22 4:06:35 PM*
%MOMM*%
%LPD*%
G01*
G04 APERTURE LIST*
G04 #@! TA.AperFunction,ComponentPad*
%ADD10R,2.781300X2.781300*%
G04 #@! TD*
G04 #@! TA.AperFunction,ComponentPad*
%ADD11C,2.000000*%
G04 #@! TD*
G04 #@! TA.AperFunction,ViaPad*
%ADD12C,0.812800*%
G04 #@! TD*
G04 #@! TA.AperFunction,Conductor*
%ADD13C,0.508000*%
G04 #@! TD*
G04 APERTURE END LIST*
D10*
G04 #@! TO.P,BT1,1*
G04 #@! TO.N,+BATT*
X165748000Y-87300000D03*
G04 #@! TO.P,BT1,3*
G04 #@! TO.N,N/C*
X165748000Y-112700000D03*
G04 #@! TD*
D11*
G04 #@! TO.P,D1,1*
G04 #@! TO.N,Net-(D1-Pad1)*
X132160000Y-90480000D03*
G04 #@! TO.P,D1,2*
G04 #@! TO.N,Net-(D1-Pad2)*
X132160000Y-87980000D03*
G04 #@! TO.P,D1,3*
G04 #@! TO.N,VCC*
X132160000Y-85480000D03*
G04 #@! TO.P,D1,4*
G04 #@! TO.N,GND*
X132160000Y-82980000D03*
G04 #@! TD*
D12*
G04 #@! TO.N,VCC*
X151520000Y-109020000D03*
G04 #@! TO.N,GND*
X162440000Y-86110000D03*
G04 #@! TO.N,+BATT*
X154422000Y-89174000D03*
G04 #@! TO.N,Net-(BT1-Pad2)*
X136352000Y-80912000D03*
X168242000Y-80912000D03*
G04 #@! TO.N,Net-(R7-Pad1)*
X150550000Y-89050000D03*
X139402000Y-94264000D03*
G04 #@! TO.N,GND*
X136434000Y-78268000D03*
X145474000Y-78918000D03*
G04 #@! TO.N,Net-(D1-Pad2)*
X136460000Y-94230000D03*
G04 #@! TO.N,Net-(D1-Pad1)*
X135380000Y-94220000D03*
G04 #@! TO.N,+BATT*
X161270000Y-82720000D03*
G04 #@! TO.N,GND*
X140094000Y-78918000D03*
G04 #@! TO.N,+BATT*
X134760000Y-89170000D03*
G04 #@! TO.N,VCC*
X145936000Y-89216000D03*
G04 #@! TO.N,GND*
X160922000Y-116140000D03*
X153302000Y-107366000D03*
G04 #@! TO.N,+BATT*
X139332000Y-90694000D03*
G04 #@! TO.N,Net-(U1-Pad10)*
X144920000Y-97206000D03*
X152286000Y-100254000D03*
G04 #@! TO.N,GND*
X152032000Y-97968000D03*
G04 #@! TO.N,VCC*
X146444000Y-102794000D03*
X151524000Y-102794000D03*
X146444000Y-100000000D03*
G04 #@! TO.N,Net-(D1-Pad1)*
X135380000Y-94220000D03*
X135380000Y-94220000D03*
G04 #@! TD*
D13*
G04 #@! TO.N,GND*
X153302000Y-99238000D02*
X152032000Y-97968000D01*
X153302000Y-107366000D02*
X153302000Y-99238000D01*
X160922000Y-114986000D02*
X153302000Y-107366000D01*
X160922000Y-116140000D02*
X160922000Y-114986000D01*
X140094000Y-78918000D02*
X145474000Y-78918000D01*
X137084000Y-78918000D02*
X136434000Y-78268000D01*
X140094000Y-78918000D02*
X137084000Y-78918000D01*
X152032000Y-96518000D02*
X162440000Y-86110000D01*
X152032000Y-97968000D02*
X152032000Y-96518000D01*
G04 #@! TO.N,+BATT*
X136284000Y-90694000D02*
X134760000Y-89170000D01*
X139332000Y-90694000D02*
X136284000Y-90694000D01*
X157350000Y-86640000D02*
X161270000Y-82720000D01*
X139332000Y-90694000D02*
X143386000Y-86640000D01*
X161844736Y-82720000D02*
X161270000Y-82720000D01*
X163066650Y-82720000D02*
X161844736Y-82720000D01*
X165748000Y-85401350D02*
X163066650Y-82720000D01*
X165748000Y-87300000D02*
X165748000Y-85401350D01*
X154422000Y-86658000D02*
X154440000Y-86640000D01*
X154422000Y-89174000D02*
X154422000Y-86658000D01*
X143386000Y-86640000D02*
X154440000Y-86640000D01*
X154440000Y-86640000D02*
X157350000Y-86640000D01*
G04 #@! TO.N,VCC*
X151524000Y-102794000D02*
X146444000Y-102794000D01*
X146444000Y-102794000D02*
X146444000Y-100000000D01*
X145936000Y-89216000D02*
X145936000Y-90884000D01*
X140330000Y-96490000D02*
X140330000Y-100000000D01*
X145936000Y-90884000D02*
X140330000Y-96490000D01*
X146444000Y-100000000D02*
X140330000Y-100000000D01*
X129990000Y-87650000D02*
X132160000Y-85480000D01*
X129990000Y-92290000D02*
X129990000Y-87650000D01*
X140330000Y-100000000D02*
X137700000Y-100000000D01*
X137700000Y-100000000D02*
X129990000Y-92290000D01*
X151520000Y-102798000D02*
X151524000Y-102794000D01*
X151520000Y-109020000D02*
X151520000Y-102798000D01*
G04 #@! TO.N,Net-(U1-Pad10)*
X152286000Y-100254000D02*
X149238000Y-97206000D01*
X149238000Y-97206000D02*
X144920000Y-97206000D01*
G04 #@! TO.N,Net-(D1-Pad1)*
X135380000Y-93700000D02*
X132160000Y-90480000D01*
X135380000Y-94220000D02*
X135380000Y-93700000D01*
G04 #@! TO.N,Net-(D1-Pad2)*
X136460000Y-92280000D02*
X132160000Y-87980000D01*
X136460000Y-94230000D02*
X136460000Y-92280000D01*
G04 #@! TO.N,Net-(BT1-Pad2)*
X136352000Y-80912000D02*
X168242000Y-80912000D01*
G04 #@! TO.N,Net-(R7-Pad1)*
X150143601Y-88643601D02*
X150550000Y-89050000D01*
X149805599Y-88305599D02*
X150143601Y-88643601D01*
X145360401Y-88305599D02*
X149805599Y-88305599D01*
X139402000Y-94264000D02*
X145360401Y-88305599D01*
G04 #@! TD*
M02*
