G04 #@! TF.GenerationSoftware,KiCad,Pcbnew,(5.0.1)-4*
G04 #@! TF.CreationDate,2019-01-22T16:06:35-05:00*
G04 #@! TF.ProjectId,puck_design,7075636B5F64657369676E2E6B696361,rev?*
G04 #@! TF.SameCoordinates,Original*
G04 #@! TF.FileFunction,Soldermask,Bot*
G04 #@! TF.FilePolarity,Negative*
%FSLAX46Y46*%
G04 Gerber Fmt 4.6, Leading zero omitted, Abs format (unit mm)*
G04 Created by KiCad (PCBNEW (5.0.1)-4) date 2019-01-22 4:06:35 PM*
%MOMM*%
%LPD*%
G01*
G04 APERTURE LIST*
%ADD10C,0.100000*%
G04 APERTURE END LIST*
D10*
G36*
X162556402Y-120591483D02*
X162710140Y-120655163D01*
X162848499Y-120747612D01*
X162966158Y-120865271D01*
X163058607Y-121003630D01*
X163122287Y-121157368D01*
X163154750Y-121320568D01*
X163154750Y-121486972D01*
X163122287Y-121650172D01*
X163058607Y-121803910D01*
X162966158Y-121942269D01*
X162848499Y-122059928D01*
X162710140Y-122152377D01*
X162556402Y-122216057D01*
X162393202Y-122248520D01*
X162226798Y-122248520D01*
X162063598Y-122216057D01*
X161909860Y-122152377D01*
X161771501Y-122059928D01*
X161653842Y-121942269D01*
X161561393Y-121803910D01*
X161497713Y-121650172D01*
X161465250Y-121486972D01*
X161465250Y-121320568D01*
X161497713Y-121157368D01*
X161561393Y-121003630D01*
X161653842Y-120865271D01*
X161771501Y-120747612D01*
X161909860Y-120655163D01*
X162063598Y-120591483D01*
X162226798Y-120559020D01*
X162393202Y-120559020D01*
X162556402Y-120591483D01*
X162556402Y-120591483D01*
G37*
G36*
X161055416Y-115700177D02*
X161055418Y-115700178D01*
X161055419Y-115700178D01*
X161086168Y-115712915D01*
X161138661Y-115734658D01*
X161213578Y-115784716D01*
X161277284Y-115848422D01*
X161327342Y-115923339D01*
X161361823Y-116006584D01*
X161379400Y-116094949D01*
X161379400Y-116185051D01*
X161361823Y-116273416D01*
X161327342Y-116356661D01*
X161277284Y-116431578D01*
X161213578Y-116495284D01*
X161138661Y-116545342D01*
X161086168Y-116567085D01*
X161055419Y-116579822D01*
X161055418Y-116579822D01*
X161055416Y-116579823D01*
X160967051Y-116597400D01*
X160876949Y-116597400D01*
X160788584Y-116579823D01*
X160788582Y-116579822D01*
X160788581Y-116579822D01*
X160757832Y-116567085D01*
X160705339Y-116545342D01*
X160630422Y-116495284D01*
X160566716Y-116431578D01*
X160516658Y-116356661D01*
X160482177Y-116273416D01*
X160464600Y-116185051D01*
X160464600Y-116094949D01*
X160482177Y-116006584D01*
X160516658Y-115923339D01*
X160566716Y-115848422D01*
X160630422Y-115784716D01*
X160705339Y-115734658D01*
X160757832Y-115712915D01*
X160788581Y-115700178D01*
X160788582Y-115700178D01*
X160788584Y-115700177D01*
X160876949Y-115682600D01*
X160967051Y-115682600D01*
X161055416Y-115700177D01*
X161055416Y-115700177D01*
G37*
G36*
X167240250Y-114192250D02*
X164255750Y-114192250D01*
X164255750Y-111207750D01*
X167240250Y-111207750D01*
X167240250Y-114192250D01*
X167240250Y-114192250D01*
G37*
G36*
X151653416Y-108580177D02*
X151653418Y-108580178D01*
X151653419Y-108580178D01*
X151684168Y-108592915D01*
X151736661Y-108614658D01*
X151811578Y-108664716D01*
X151875284Y-108728422D01*
X151925342Y-108803339D01*
X151959823Y-108886584D01*
X151977400Y-108974949D01*
X151977400Y-109065051D01*
X151959823Y-109153416D01*
X151925342Y-109236661D01*
X151875284Y-109311578D01*
X151811578Y-109375284D01*
X151736661Y-109425342D01*
X151684168Y-109447085D01*
X151653419Y-109459822D01*
X151653418Y-109459822D01*
X151653416Y-109459823D01*
X151565051Y-109477400D01*
X151474949Y-109477400D01*
X151386584Y-109459823D01*
X151386582Y-109459822D01*
X151386581Y-109459822D01*
X151355832Y-109447085D01*
X151303339Y-109425342D01*
X151228422Y-109375284D01*
X151164716Y-109311578D01*
X151114658Y-109236661D01*
X151080177Y-109153416D01*
X151062600Y-109065051D01*
X151062600Y-108974949D01*
X151080177Y-108886584D01*
X151114658Y-108803339D01*
X151164716Y-108728422D01*
X151228422Y-108664716D01*
X151303339Y-108614658D01*
X151355832Y-108592915D01*
X151386581Y-108580178D01*
X151386582Y-108580178D01*
X151386584Y-108580177D01*
X151474949Y-108562600D01*
X151565051Y-108562600D01*
X151653416Y-108580177D01*
X151653416Y-108580177D01*
G37*
G36*
X153435416Y-106926177D02*
X153435418Y-106926178D01*
X153435419Y-106926178D01*
X153466168Y-106938915D01*
X153518661Y-106960658D01*
X153593578Y-107010716D01*
X153657284Y-107074422D01*
X153707342Y-107149339D01*
X153741823Y-107232584D01*
X153759400Y-107320949D01*
X153759400Y-107411051D01*
X153741823Y-107499416D01*
X153707342Y-107582661D01*
X153657284Y-107657578D01*
X153593578Y-107721284D01*
X153518661Y-107771342D01*
X153466168Y-107793085D01*
X153435419Y-107805822D01*
X153435418Y-107805822D01*
X153435416Y-107805823D01*
X153347051Y-107823400D01*
X153256949Y-107823400D01*
X153168584Y-107805823D01*
X153168582Y-107805822D01*
X153168581Y-107805822D01*
X153137832Y-107793085D01*
X153085339Y-107771342D01*
X153010422Y-107721284D01*
X152946716Y-107657578D01*
X152896658Y-107582661D01*
X152862177Y-107499416D01*
X152844600Y-107411051D01*
X152844600Y-107320949D01*
X152862177Y-107232584D01*
X152896658Y-107149339D01*
X152946716Y-107074422D01*
X153010422Y-107010716D01*
X153085339Y-106960658D01*
X153137832Y-106938915D01*
X153168581Y-106926178D01*
X153168582Y-106926178D01*
X153168584Y-106926177D01*
X153256949Y-106908600D01*
X153347051Y-106908600D01*
X153435416Y-106926177D01*
X153435416Y-106926177D01*
G37*
G36*
X146577416Y-102354177D02*
X146577418Y-102354178D01*
X146577419Y-102354178D01*
X146608168Y-102366915D01*
X146660661Y-102388658D01*
X146735578Y-102438716D01*
X146799284Y-102502422D01*
X146849342Y-102577339D01*
X146883823Y-102660584D01*
X146901400Y-102748949D01*
X146901400Y-102839051D01*
X146883823Y-102927416D01*
X146849342Y-103010661D01*
X146799284Y-103085578D01*
X146735578Y-103149284D01*
X146660661Y-103199342D01*
X146608168Y-103221085D01*
X146577419Y-103233822D01*
X146577418Y-103233822D01*
X146577416Y-103233823D01*
X146489051Y-103251400D01*
X146398949Y-103251400D01*
X146310584Y-103233823D01*
X146310582Y-103233822D01*
X146310581Y-103233822D01*
X146279832Y-103221085D01*
X146227339Y-103199342D01*
X146152422Y-103149284D01*
X146088716Y-103085578D01*
X146038658Y-103010661D01*
X146004177Y-102927416D01*
X145986600Y-102839051D01*
X145986600Y-102748949D01*
X146004177Y-102660584D01*
X146038658Y-102577339D01*
X146088716Y-102502422D01*
X146152422Y-102438716D01*
X146227339Y-102388658D01*
X146279832Y-102366915D01*
X146310581Y-102354178D01*
X146310582Y-102354178D01*
X146310584Y-102354177D01*
X146398949Y-102336600D01*
X146489051Y-102336600D01*
X146577416Y-102354177D01*
X146577416Y-102354177D01*
G37*
G36*
X151657416Y-102354177D02*
X151657418Y-102354178D01*
X151657419Y-102354178D01*
X151688168Y-102366915D01*
X151740661Y-102388658D01*
X151815578Y-102438716D01*
X151879284Y-102502422D01*
X151929342Y-102577339D01*
X151963823Y-102660584D01*
X151981400Y-102748949D01*
X151981400Y-102839051D01*
X151963823Y-102927416D01*
X151929342Y-103010661D01*
X151879284Y-103085578D01*
X151815578Y-103149284D01*
X151740661Y-103199342D01*
X151688168Y-103221085D01*
X151657419Y-103233822D01*
X151657418Y-103233822D01*
X151657416Y-103233823D01*
X151569051Y-103251400D01*
X151478949Y-103251400D01*
X151390584Y-103233823D01*
X151390582Y-103233822D01*
X151390581Y-103233822D01*
X151359832Y-103221085D01*
X151307339Y-103199342D01*
X151232422Y-103149284D01*
X151168716Y-103085578D01*
X151118658Y-103010661D01*
X151084177Y-102927416D01*
X151066600Y-102839051D01*
X151066600Y-102748949D01*
X151084177Y-102660584D01*
X151118658Y-102577339D01*
X151168716Y-102502422D01*
X151232422Y-102438716D01*
X151307339Y-102388658D01*
X151359832Y-102366915D01*
X151390581Y-102354178D01*
X151390582Y-102354178D01*
X151390584Y-102354177D01*
X151478949Y-102336600D01*
X151569051Y-102336600D01*
X151657416Y-102354177D01*
X151657416Y-102354177D01*
G37*
G36*
X152419416Y-99814177D02*
X152419418Y-99814178D01*
X152419419Y-99814178D01*
X152450168Y-99826915D01*
X152502661Y-99848658D01*
X152577578Y-99898716D01*
X152641284Y-99962422D01*
X152691342Y-100037339D01*
X152725823Y-100120584D01*
X152743400Y-100208949D01*
X152743400Y-100299051D01*
X152725823Y-100387416D01*
X152691342Y-100470661D01*
X152641284Y-100545578D01*
X152577578Y-100609284D01*
X152502661Y-100659342D01*
X152450168Y-100681085D01*
X152419419Y-100693822D01*
X152419418Y-100693822D01*
X152419416Y-100693823D01*
X152331051Y-100711400D01*
X152240949Y-100711400D01*
X152152584Y-100693823D01*
X152152582Y-100693822D01*
X152152581Y-100693822D01*
X152121832Y-100681085D01*
X152069339Y-100659342D01*
X151994422Y-100609284D01*
X151930716Y-100545578D01*
X151880658Y-100470661D01*
X151846177Y-100387416D01*
X151828600Y-100299051D01*
X151828600Y-100208949D01*
X151846177Y-100120584D01*
X151880658Y-100037339D01*
X151930716Y-99962422D01*
X151994422Y-99898716D01*
X152069339Y-99848658D01*
X152121832Y-99826915D01*
X152152581Y-99814178D01*
X152152582Y-99814178D01*
X152152584Y-99814177D01*
X152240949Y-99796600D01*
X152331051Y-99796600D01*
X152419416Y-99814177D01*
X152419416Y-99814177D01*
G37*
G36*
X146577416Y-99560177D02*
X146577418Y-99560178D01*
X146577419Y-99560178D01*
X146608168Y-99572915D01*
X146660661Y-99594658D01*
X146735578Y-99644716D01*
X146799284Y-99708422D01*
X146849342Y-99783339D01*
X146883823Y-99866584D01*
X146901400Y-99954949D01*
X146901400Y-100045051D01*
X146883823Y-100133416D01*
X146849342Y-100216661D01*
X146799284Y-100291578D01*
X146735578Y-100355284D01*
X146660661Y-100405342D01*
X146608168Y-100427085D01*
X146577419Y-100439822D01*
X146577418Y-100439822D01*
X146577416Y-100439823D01*
X146489051Y-100457400D01*
X146398949Y-100457400D01*
X146310584Y-100439823D01*
X146310582Y-100439822D01*
X146310581Y-100439822D01*
X146279832Y-100427085D01*
X146227339Y-100405342D01*
X146152422Y-100355284D01*
X146088716Y-100291578D01*
X146038658Y-100216661D01*
X146004177Y-100133416D01*
X145986600Y-100045051D01*
X145986600Y-99954949D01*
X146004177Y-99866584D01*
X146038658Y-99783339D01*
X146088716Y-99708422D01*
X146152422Y-99644716D01*
X146227339Y-99594658D01*
X146279832Y-99572915D01*
X146310581Y-99560178D01*
X146310582Y-99560178D01*
X146310584Y-99560177D01*
X146398949Y-99542600D01*
X146489051Y-99542600D01*
X146577416Y-99560177D01*
X146577416Y-99560177D01*
G37*
G36*
X152165416Y-97528177D02*
X152165418Y-97528178D01*
X152165419Y-97528178D01*
X152196168Y-97540915D01*
X152248661Y-97562658D01*
X152323578Y-97612716D01*
X152387284Y-97676422D01*
X152437342Y-97751339D01*
X152471823Y-97834584D01*
X152489400Y-97922949D01*
X152489400Y-98013051D01*
X152471823Y-98101416D01*
X152437342Y-98184661D01*
X152387284Y-98259578D01*
X152323578Y-98323284D01*
X152248661Y-98373342D01*
X152196168Y-98395085D01*
X152165419Y-98407822D01*
X152165418Y-98407822D01*
X152165416Y-98407823D01*
X152077051Y-98425400D01*
X151986949Y-98425400D01*
X151898584Y-98407823D01*
X151898582Y-98407822D01*
X151898581Y-98407822D01*
X151867832Y-98395085D01*
X151815339Y-98373342D01*
X151740422Y-98323284D01*
X151676716Y-98259578D01*
X151626658Y-98184661D01*
X151592177Y-98101416D01*
X151574600Y-98013051D01*
X151574600Y-97922949D01*
X151592177Y-97834584D01*
X151626658Y-97751339D01*
X151676716Y-97676422D01*
X151740422Y-97612716D01*
X151815339Y-97562658D01*
X151867832Y-97540915D01*
X151898581Y-97528178D01*
X151898582Y-97528178D01*
X151898584Y-97528177D01*
X151986949Y-97510600D01*
X152077051Y-97510600D01*
X152165416Y-97528177D01*
X152165416Y-97528177D01*
G37*
G36*
X145053416Y-96766177D02*
X145053418Y-96766178D01*
X145053419Y-96766178D01*
X145084168Y-96778915D01*
X145136661Y-96800658D01*
X145211578Y-96850716D01*
X145275284Y-96914422D01*
X145325342Y-96989339D01*
X145359823Y-97072584D01*
X145377400Y-97160949D01*
X145377400Y-97251051D01*
X145359823Y-97339416D01*
X145325342Y-97422661D01*
X145275284Y-97497578D01*
X145211578Y-97561284D01*
X145136661Y-97611342D01*
X145084168Y-97633085D01*
X145053419Y-97645822D01*
X145053418Y-97645822D01*
X145053416Y-97645823D01*
X144965051Y-97663400D01*
X144874949Y-97663400D01*
X144786584Y-97645823D01*
X144786582Y-97645822D01*
X144786581Y-97645822D01*
X144755832Y-97633085D01*
X144703339Y-97611342D01*
X144628422Y-97561284D01*
X144564716Y-97497578D01*
X144514658Y-97422661D01*
X144480177Y-97339416D01*
X144462600Y-97251051D01*
X144462600Y-97160949D01*
X144480177Y-97072584D01*
X144514658Y-96989339D01*
X144564716Y-96914422D01*
X144628422Y-96850716D01*
X144703339Y-96800658D01*
X144755832Y-96778915D01*
X144786581Y-96766178D01*
X144786582Y-96766178D01*
X144786584Y-96766177D01*
X144874949Y-96748600D01*
X144965051Y-96748600D01*
X145053416Y-96766177D01*
X145053416Y-96766177D01*
G37*
G36*
X139535416Y-93824177D02*
X139535418Y-93824178D01*
X139535419Y-93824178D01*
X139566168Y-93836915D01*
X139618661Y-93858658D01*
X139693578Y-93908716D01*
X139757284Y-93972422D01*
X139807342Y-94047339D01*
X139841823Y-94130584D01*
X139859400Y-94218949D01*
X139859400Y-94309051D01*
X139841823Y-94397416D01*
X139807342Y-94480661D01*
X139757284Y-94555578D01*
X139693578Y-94619284D01*
X139618661Y-94669342D01*
X139599207Y-94677400D01*
X139535419Y-94703822D01*
X139535418Y-94703822D01*
X139535416Y-94703823D01*
X139447051Y-94721400D01*
X139356949Y-94721400D01*
X139268584Y-94703823D01*
X139268582Y-94703822D01*
X139268581Y-94703822D01*
X139204793Y-94677400D01*
X139185339Y-94669342D01*
X139110422Y-94619284D01*
X139046716Y-94555578D01*
X138996658Y-94480661D01*
X138962177Y-94397416D01*
X138944600Y-94309051D01*
X138944600Y-94218949D01*
X138962177Y-94130584D01*
X138996658Y-94047339D01*
X139046716Y-93972422D01*
X139110422Y-93908716D01*
X139185339Y-93858658D01*
X139237832Y-93836915D01*
X139268581Y-93824178D01*
X139268582Y-93824178D01*
X139268584Y-93824177D01*
X139356949Y-93806600D01*
X139447051Y-93806600D01*
X139535416Y-93824177D01*
X139535416Y-93824177D01*
G37*
G36*
X135513416Y-93780177D02*
X135513418Y-93780178D01*
X135513419Y-93780178D01*
X135537558Y-93790177D01*
X135596661Y-93814658D01*
X135671578Y-93864716D01*
X135735284Y-93928422D01*
X135785342Y-94003339D01*
X135806586Y-94054626D01*
X135818138Y-94076237D01*
X135833683Y-94095179D01*
X135852625Y-94110724D01*
X135874236Y-94122275D01*
X135897685Y-94129388D01*
X135922072Y-94131790D01*
X135946458Y-94129388D01*
X135969907Y-94122275D01*
X135991518Y-94110723D01*
X136010460Y-94095178D01*
X136026005Y-94076236D01*
X136037556Y-94054626D01*
X136054658Y-94013339D01*
X136104716Y-93938422D01*
X136168422Y-93874716D01*
X136243339Y-93824658D01*
X136295832Y-93802915D01*
X136326581Y-93790178D01*
X136326582Y-93790178D01*
X136326584Y-93790177D01*
X136414949Y-93772600D01*
X136505051Y-93772600D01*
X136593416Y-93790177D01*
X136593418Y-93790178D01*
X136593419Y-93790178D01*
X136624168Y-93802915D01*
X136676661Y-93824658D01*
X136751578Y-93874716D01*
X136815284Y-93938422D01*
X136865342Y-94013339D01*
X136899823Y-94096584D01*
X136917400Y-94184949D01*
X136917400Y-94275051D01*
X136899823Y-94363416D01*
X136865342Y-94446661D01*
X136815284Y-94521578D01*
X136751578Y-94585284D01*
X136676661Y-94635342D01*
X136624168Y-94657085D01*
X136593419Y-94669822D01*
X136593418Y-94669822D01*
X136593416Y-94669823D01*
X136505051Y-94687400D01*
X136414949Y-94687400D01*
X136326584Y-94669823D01*
X136326582Y-94669822D01*
X136326581Y-94669822D01*
X136295832Y-94657085D01*
X136243339Y-94635342D01*
X136168422Y-94585284D01*
X136104716Y-94521578D01*
X136054658Y-94446661D01*
X136033414Y-94395374D01*
X136021862Y-94373763D01*
X136006317Y-94354821D01*
X135987375Y-94339276D01*
X135965764Y-94327725D01*
X135942315Y-94320612D01*
X135917928Y-94318210D01*
X135893542Y-94320612D01*
X135870093Y-94327725D01*
X135848482Y-94339277D01*
X135829540Y-94354822D01*
X135813995Y-94373764D01*
X135802444Y-94395374D01*
X135785342Y-94436661D01*
X135735284Y-94511578D01*
X135671578Y-94575284D01*
X135596661Y-94625342D01*
X135544168Y-94647085D01*
X135513419Y-94659822D01*
X135513418Y-94659822D01*
X135513416Y-94659823D01*
X135425051Y-94677400D01*
X135334949Y-94677400D01*
X135246584Y-94659823D01*
X135246582Y-94659822D01*
X135246581Y-94659822D01*
X135215832Y-94647085D01*
X135163339Y-94625342D01*
X135088422Y-94575284D01*
X135024716Y-94511578D01*
X134974658Y-94436661D01*
X134940177Y-94353416D01*
X134922600Y-94265051D01*
X134922600Y-94174949D01*
X134940177Y-94086584D01*
X134974658Y-94003339D01*
X135024716Y-93928422D01*
X135088422Y-93864716D01*
X135163339Y-93814658D01*
X135222442Y-93790177D01*
X135246581Y-93780178D01*
X135246582Y-93780178D01*
X135246584Y-93780177D01*
X135334949Y-93762600D01*
X135425051Y-93762600D01*
X135513416Y-93780177D01*
X135513416Y-93780177D01*
G37*
G36*
X132466565Y-89469389D02*
X132657834Y-89548615D01*
X132829976Y-89663637D01*
X132976363Y-89810024D01*
X133091385Y-89982166D01*
X133170611Y-90173435D01*
X133211000Y-90376484D01*
X133211000Y-90583516D01*
X133170611Y-90786565D01*
X133091385Y-90977834D01*
X132976363Y-91149976D01*
X132829976Y-91296363D01*
X132657834Y-91411385D01*
X132466565Y-91490611D01*
X132263516Y-91531000D01*
X132056484Y-91531000D01*
X131853435Y-91490611D01*
X131662166Y-91411385D01*
X131490024Y-91296363D01*
X131343637Y-91149976D01*
X131228615Y-90977834D01*
X131149389Y-90786565D01*
X131109000Y-90583516D01*
X131109000Y-90376484D01*
X131149389Y-90173435D01*
X131228615Y-89982166D01*
X131343637Y-89810024D01*
X131490024Y-89663637D01*
X131662166Y-89548615D01*
X131853435Y-89469389D01*
X132056484Y-89429000D01*
X132263516Y-89429000D01*
X132466565Y-89469389D01*
X132466565Y-89469389D01*
G37*
G36*
X139465416Y-90254177D02*
X139465418Y-90254178D01*
X139465419Y-90254178D01*
X139496168Y-90266915D01*
X139548661Y-90288658D01*
X139623578Y-90338716D01*
X139687284Y-90402422D01*
X139737342Y-90477339D01*
X139771823Y-90560584D01*
X139789400Y-90648949D01*
X139789400Y-90739051D01*
X139771823Y-90827416D01*
X139737342Y-90910661D01*
X139687284Y-90985578D01*
X139623578Y-91049284D01*
X139548661Y-91099342D01*
X139496168Y-91121085D01*
X139465419Y-91133822D01*
X139465418Y-91133822D01*
X139465416Y-91133823D01*
X139377051Y-91151400D01*
X139286949Y-91151400D01*
X139198584Y-91133823D01*
X139198582Y-91133822D01*
X139198581Y-91133822D01*
X139167832Y-91121085D01*
X139115339Y-91099342D01*
X139040422Y-91049284D01*
X138976716Y-90985578D01*
X138926658Y-90910661D01*
X138892177Y-90827416D01*
X138874600Y-90739051D01*
X138874600Y-90648949D01*
X138892177Y-90560584D01*
X138926658Y-90477339D01*
X138976716Y-90402422D01*
X139040422Y-90338716D01*
X139115339Y-90288658D01*
X139167832Y-90266915D01*
X139198581Y-90254178D01*
X139198582Y-90254178D01*
X139198584Y-90254177D01*
X139286949Y-90236600D01*
X139377051Y-90236600D01*
X139465416Y-90254177D01*
X139465416Y-90254177D01*
G37*
G36*
X146069416Y-88776177D02*
X146069418Y-88776178D01*
X146069419Y-88776178D01*
X146100168Y-88788915D01*
X146152661Y-88810658D01*
X146227578Y-88860716D01*
X146291284Y-88924422D01*
X146341342Y-88999339D01*
X146375823Y-89082584D01*
X146393400Y-89170949D01*
X146393400Y-89261051D01*
X146375823Y-89349416D01*
X146341342Y-89432661D01*
X146291284Y-89507578D01*
X146227578Y-89571284D01*
X146152661Y-89621342D01*
X146100168Y-89643085D01*
X146069419Y-89655822D01*
X146069418Y-89655822D01*
X146069416Y-89655823D01*
X145981051Y-89673400D01*
X145890949Y-89673400D01*
X145802584Y-89655823D01*
X145802582Y-89655822D01*
X145802581Y-89655822D01*
X145771832Y-89643085D01*
X145719339Y-89621342D01*
X145644422Y-89571284D01*
X145580716Y-89507578D01*
X145530658Y-89432661D01*
X145496177Y-89349416D01*
X145478600Y-89261051D01*
X145478600Y-89170949D01*
X145496177Y-89082584D01*
X145530658Y-88999339D01*
X145580716Y-88924422D01*
X145644422Y-88860716D01*
X145719339Y-88810658D01*
X145771832Y-88788915D01*
X145802581Y-88776178D01*
X145802582Y-88776178D01*
X145802584Y-88776177D01*
X145890949Y-88758600D01*
X145981051Y-88758600D01*
X146069416Y-88776177D01*
X146069416Y-88776177D01*
G37*
G36*
X154555416Y-88734177D02*
X154555418Y-88734178D01*
X154555419Y-88734178D01*
X154586168Y-88746915D01*
X154638661Y-88768658D01*
X154713578Y-88818716D01*
X154777284Y-88882422D01*
X154827342Y-88957339D01*
X154861823Y-89040584D01*
X154879400Y-89128949D01*
X154879400Y-89219051D01*
X154861823Y-89307416D01*
X154827342Y-89390661D01*
X154777284Y-89465578D01*
X154713578Y-89529284D01*
X154638661Y-89579342D01*
X154586168Y-89601085D01*
X154555419Y-89613822D01*
X154555418Y-89613822D01*
X154555416Y-89613823D01*
X154467051Y-89631400D01*
X154376949Y-89631400D01*
X154288584Y-89613823D01*
X154288582Y-89613822D01*
X154288581Y-89613822D01*
X154257832Y-89601085D01*
X154205339Y-89579342D01*
X154130422Y-89529284D01*
X154066716Y-89465578D01*
X154016658Y-89390661D01*
X153982177Y-89307416D01*
X153964600Y-89219051D01*
X153964600Y-89128949D01*
X153982177Y-89040584D01*
X154016658Y-88957339D01*
X154066716Y-88882422D01*
X154130422Y-88818716D01*
X154205339Y-88768658D01*
X154257832Y-88746915D01*
X154288581Y-88734178D01*
X154288582Y-88734178D01*
X154288584Y-88734177D01*
X154376949Y-88716600D01*
X154467051Y-88716600D01*
X154555416Y-88734177D01*
X154555416Y-88734177D01*
G37*
G36*
X134893416Y-88730177D02*
X134893418Y-88730178D01*
X134893419Y-88730178D01*
X134924168Y-88742915D01*
X134976661Y-88764658D01*
X135051578Y-88814716D01*
X135115284Y-88878422D01*
X135165342Y-88953339D01*
X135199823Y-89036584D01*
X135217400Y-89124949D01*
X135217400Y-89215051D01*
X135199823Y-89303416D01*
X135165342Y-89386661D01*
X135115284Y-89461578D01*
X135051578Y-89525284D01*
X134976661Y-89575342D01*
X134924168Y-89597085D01*
X134893419Y-89609822D01*
X134893418Y-89609822D01*
X134893416Y-89609823D01*
X134805051Y-89627400D01*
X134714949Y-89627400D01*
X134626584Y-89609823D01*
X134626582Y-89609822D01*
X134626581Y-89609822D01*
X134595832Y-89597085D01*
X134543339Y-89575342D01*
X134468422Y-89525284D01*
X134404716Y-89461578D01*
X134354658Y-89386661D01*
X134320177Y-89303416D01*
X134302600Y-89215051D01*
X134302600Y-89124949D01*
X134320177Y-89036584D01*
X134354658Y-88953339D01*
X134404716Y-88878422D01*
X134468422Y-88814716D01*
X134543339Y-88764658D01*
X134595832Y-88742915D01*
X134626581Y-88730178D01*
X134626582Y-88730178D01*
X134626584Y-88730177D01*
X134714949Y-88712600D01*
X134805051Y-88712600D01*
X134893416Y-88730177D01*
X134893416Y-88730177D01*
G37*
G36*
X150683416Y-88610177D02*
X150683418Y-88610178D01*
X150683419Y-88610178D01*
X150714168Y-88622915D01*
X150766661Y-88644658D01*
X150841578Y-88694716D01*
X150905284Y-88758422D01*
X150955342Y-88833339D01*
X150989823Y-88916584D01*
X151007400Y-89004949D01*
X151007400Y-89095051D01*
X150989823Y-89183416D01*
X150955342Y-89266661D01*
X150905284Y-89341578D01*
X150841578Y-89405284D01*
X150766661Y-89455342D01*
X150732748Y-89469389D01*
X150683419Y-89489822D01*
X150683418Y-89489822D01*
X150683416Y-89489823D01*
X150595051Y-89507400D01*
X150504949Y-89507400D01*
X150416584Y-89489823D01*
X150416582Y-89489822D01*
X150416581Y-89489822D01*
X150367252Y-89469389D01*
X150333339Y-89455342D01*
X150258422Y-89405284D01*
X150194716Y-89341578D01*
X150144658Y-89266661D01*
X150110177Y-89183416D01*
X150092600Y-89095051D01*
X150092600Y-89004949D01*
X150110177Y-88916584D01*
X150144658Y-88833339D01*
X150194716Y-88758422D01*
X150258422Y-88694716D01*
X150333339Y-88644658D01*
X150385832Y-88622915D01*
X150416581Y-88610178D01*
X150416582Y-88610178D01*
X150416584Y-88610177D01*
X150504949Y-88592600D01*
X150595051Y-88592600D01*
X150683416Y-88610177D01*
X150683416Y-88610177D01*
G37*
G36*
X132466565Y-86969389D02*
X132657834Y-87048615D01*
X132829976Y-87163637D01*
X132976363Y-87310024D01*
X133091385Y-87482166D01*
X133170611Y-87673435D01*
X133211000Y-87876484D01*
X133211000Y-88083516D01*
X133170611Y-88286565D01*
X133091385Y-88477834D01*
X132976363Y-88649976D01*
X132829976Y-88796363D01*
X132657834Y-88911385D01*
X132466565Y-88990611D01*
X132263516Y-89031000D01*
X132056484Y-89031000D01*
X131853435Y-88990611D01*
X131662166Y-88911385D01*
X131490024Y-88796363D01*
X131343637Y-88649976D01*
X131228615Y-88477834D01*
X131149389Y-88286565D01*
X131109000Y-88083516D01*
X131109000Y-87876484D01*
X131149389Y-87673435D01*
X131228615Y-87482166D01*
X131343637Y-87310024D01*
X131490024Y-87163637D01*
X131662166Y-87048615D01*
X131853435Y-86969389D01*
X132056484Y-86929000D01*
X132263516Y-86929000D01*
X132466565Y-86969389D01*
X132466565Y-86969389D01*
G37*
G36*
X167240250Y-88792250D02*
X164255750Y-88792250D01*
X164255750Y-85807750D01*
X167240250Y-85807750D01*
X167240250Y-88792250D01*
X167240250Y-88792250D01*
G37*
G36*
X162573416Y-85670177D02*
X162573418Y-85670178D01*
X162573419Y-85670178D01*
X162604168Y-85682915D01*
X162656661Y-85704658D01*
X162731578Y-85754716D01*
X162795284Y-85818422D01*
X162845342Y-85893339D01*
X162879823Y-85976584D01*
X162897400Y-86064949D01*
X162897400Y-86155051D01*
X162879823Y-86243416D01*
X162845342Y-86326661D01*
X162795284Y-86401578D01*
X162731578Y-86465284D01*
X162656661Y-86515342D01*
X162618859Y-86531000D01*
X162573419Y-86549822D01*
X162573418Y-86549822D01*
X162573416Y-86549823D01*
X162485051Y-86567400D01*
X162394949Y-86567400D01*
X162306584Y-86549823D01*
X162306582Y-86549822D01*
X162306581Y-86549822D01*
X162261141Y-86531000D01*
X162223339Y-86515342D01*
X162148422Y-86465284D01*
X162084716Y-86401578D01*
X162034658Y-86326661D01*
X162000177Y-86243416D01*
X161982600Y-86155051D01*
X161982600Y-86064949D01*
X162000177Y-85976584D01*
X162034658Y-85893339D01*
X162084716Y-85818422D01*
X162148422Y-85754716D01*
X162223339Y-85704658D01*
X162275832Y-85682915D01*
X162306581Y-85670178D01*
X162306582Y-85670178D01*
X162306584Y-85670177D01*
X162394949Y-85652600D01*
X162485051Y-85652600D01*
X162573416Y-85670177D01*
X162573416Y-85670177D01*
G37*
G36*
X132466565Y-84469389D02*
X132657834Y-84548615D01*
X132829976Y-84663637D01*
X132976363Y-84810024D01*
X133091385Y-84982166D01*
X133170611Y-85173435D01*
X133211000Y-85376484D01*
X133211000Y-85583516D01*
X133170611Y-85786565D01*
X133091385Y-85977834D01*
X132976363Y-86149976D01*
X132829976Y-86296363D01*
X132657834Y-86411385D01*
X132466565Y-86490611D01*
X132263516Y-86531000D01*
X132056484Y-86531000D01*
X131853435Y-86490611D01*
X131662166Y-86411385D01*
X131490024Y-86296363D01*
X131343637Y-86149976D01*
X131228615Y-85977834D01*
X131149389Y-85786565D01*
X131109000Y-85583516D01*
X131109000Y-85376484D01*
X131149389Y-85173435D01*
X131228615Y-84982166D01*
X131343637Y-84810024D01*
X131490024Y-84663637D01*
X131662166Y-84548615D01*
X131853435Y-84469389D01*
X132056484Y-84429000D01*
X132263516Y-84429000D01*
X132466565Y-84469389D01*
X132466565Y-84469389D01*
G37*
G36*
X132466565Y-81969389D02*
X132657834Y-82048615D01*
X132829976Y-82163637D01*
X132976363Y-82310024D01*
X133091385Y-82482166D01*
X133170611Y-82673435D01*
X133211000Y-82876484D01*
X133211000Y-83083516D01*
X133170611Y-83286565D01*
X133091385Y-83477834D01*
X132976363Y-83649976D01*
X132829976Y-83796363D01*
X132657834Y-83911385D01*
X132466565Y-83990611D01*
X132263516Y-84031000D01*
X132056484Y-84031000D01*
X131853435Y-83990611D01*
X131662166Y-83911385D01*
X131490024Y-83796363D01*
X131343637Y-83649976D01*
X131228615Y-83477834D01*
X131149389Y-83286565D01*
X131109000Y-83083516D01*
X131109000Y-82876484D01*
X131149389Y-82673435D01*
X131228615Y-82482166D01*
X131343637Y-82310024D01*
X131490024Y-82163637D01*
X131662166Y-82048615D01*
X131853435Y-81969389D01*
X132056484Y-81929000D01*
X132263516Y-81929000D01*
X132466565Y-81969389D01*
X132466565Y-81969389D01*
G37*
G36*
X150160721Y-82308174D02*
X150260995Y-82349709D01*
X150351245Y-82410012D01*
X150427988Y-82486755D01*
X150488291Y-82577005D01*
X150529826Y-82677279D01*
X150551000Y-82783730D01*
X150551000Y-82892270D01*
X150529826Y-82998721D01*
X150488291Y-83098995D01*
X150427988Y-83189245D01*
X150351245Y-83265988D01*
X150260995Y-83326291D01*
X150160721Y-83367826D01*
X150054270Y-83389000D01*
X149945730Y-83389000D01*
X149839279Y-83367826D01*
X149739005Y-83326291D01*
X149648755Y-83265988D01*
X149572012Y-83189245D01*
X149511709Y-83098995D01*
X149470174Y-82998721D01*
X149449000Y-82892270D01*
X149449000Y-82783730D01*
X149470174Y-82677279D01*
X149511709Y-82577005D01*
X149572012Y-82486755D01*
X149648755Y-82410012D01*
X149739005Y-82349709D01*
X149839279Y-82308174D01*
X149945730Y-82287000D01*
X150054270Y-82287000D01*
X150160721Y-82308174D01*
X150160721Y-82308174D01*
G37*
G36*
X161403416Y-82280177D02*
X161403418Y-82280178D01*
X161403419Y-82280178D01*
X161434168Y-82292915D01*
X161486661Y-82314658D01*
X161561578Y-82364716D01*
X161625284Y-82428422D01*
X161675342Y-82503339D01*
X161709823Y-82586584D01*
X161727400Y-82674949D01*
X161727400Y-82765051D01*
X161709823Y-82853416D01*
X161675342Y-82936661D01*
X161625284Y-83011578D01*
X161561578Y-83075284D01*
X161486661Y-83125342D01*
X161434168Y-83147085D01*
X161403419Y-83159822D01*
X161403418Y-83159822D01*
X161403416Y-83159823D01*
X161315051Y-83177400D01*
X161224949Y-83177400D01*
X161136584Y-83159823D01*
X161136582Y-83159822D01*
X161136581Y-83159822D01*
X161105832Y-83147085D01*
X161053339Y-83125342D01*
X160978422Y-83075284D01*
X160914716Y-83011578D01*
X160864658Y-82936661D01*
X160830177Y-82853416D01*
X160812600Y-82765051D01*
X160812600Y-82674949D01*
X160830177Y-82586584D01*
X160864658Y-82503339D01*
X160914716Y-82428422D01*
X160978422Y-82364716D01*
X161053339Y-82314658D01*
X161105832Y-82292915D01*
X161136581Y-82280178D01*
X161136582Y-82280178D01*
X161136584Y-82280177D01*
X161224949Y-82262600D01*
X161315051Y-82262600D01*
X161403416Y-82280177D01*
X161403416Y-82280177D01*
G37*
G36*
X136485416Y-80472177D02*
X136485418Y-80472178D01*
X136485419Y-80472178D01*
X136516168Y-80484915D01*
X136568661Y-80506658D01*
X136643578Y-80556716D01*
X136707284Y-80620422D01*
X136757342Y-80695339D01*
X136791823Y-80778584D01*
X136809400Y-80866949D01*
X136809400Y-80957051D01*
X136791823Y-81045416D01*
X136757342Y-81128661D01*
X136707284Y-81203578D01*
X136643578Y-81267284D01*
X136568661Y-81317342D01*
X136516168Y-81339085D01*
X136485419Y-81351822D01*
X136485418Y-81351822D01*
X136485416Y-81351823D01*
X136397051Y-81369400D01*
X136306949Y-81369400D01*
X136218584Y-81351823D01*
X136218582Y-81351822D01*
X136218581Y-81351822D01*
X136187832Y-81339085D01*
X136135339Y-81317342D01*
X136060422Y-81267284D01*
X135996716Y-81203578D01*
X135946658Y-81128661D01*
X135912177Y-81045416D01*
X135894600Y-80957051D01*
X135894600Y-80866949D01*
X135912177Y-80778584D01*
X135946658Y-80695339D01*
X135996716Y-80620422D01*
X136060422Y-80556716D01*
X136135339Y-80506658D01*
X136187832Y-80484915D01*
X136218581Y-80472178D01*
X136218582Y-80472178D01*
X136218584Y-80472177D01*
X136306949Y-80454600D01*
X136397051Y-80454600D01*
X136485416Y-80472177D01*
X136485416Y-80472177D01*
G37*
G36*
X168375416Y-80472177D02*
X168375418Y-80472178D01*
X168375419Y-80472178D01*
X168406168Y-80484915D01*
X168458661Y-80506658D01*
X168533578Y-80556716D01*
X168597284Y-80620422D01*
X168647342Y-80695339D01*
X168681823Y-80778584D01*
X168699400Y-80866949D01*
X168699400Y-80957051D01*
X168681823Y-81045416D01*
X168647342Y-81128661D01*
X168597284Y-81203578D01*
X168533578Y-81267284D01*
X168458661Y-81317342D01*
X168406168Y-81339085D01*
X168375419Y-81351822D01*
X168375418Y-81351822D01*
X168375416Y-81351823D01*
X168287051Y-81369400D01*
X168196949Y-81369400D01*
X168108584Y-81351823D01*
X168108582Y-81351822D01*
X168108581Y-81351822D01*
X168077832Y-81339085D01*
X168025339Y-81317342D01*
X167950422Y-81267284D01*
X167886716Y-81203578D01*
X167836658Y-81128661D01*
X167802177Y-81045416D01*
X167784600Y-80957051D01*
X167784600Y-80866949D01*
X167802177Y-80778584D01*
X167836658Y-80695339D01*
X167886716Y-80620422D01*
X167950422Y-80556716D01*
X168025339Y-80506658D01*
X168077832Y-80484915D01*
X168108581Y-80472178D01*
X168108582Y-80472178D01*
X168108584Y-80472177D01*
X168196949Y-80454600D01*
X168287051Y-80454600D01*
X168375416Y-80472177D01*
X168375416Y-80472177D01*
G37*
G36*
X140227416Y-78478177D02*
X140227418Y-78478178D01*
X140227419Y-78478178D01*
X140243070Y-78484661D01*
X140310661Y-78512658D01*
X140385578Y-78562716D01*
X140449284Y-78626422D01*
X140499342Y-78701339D01*
X140509308Y-78725400D01*
X140533822Y-78784581D01*
X140551400Y-78872950D01*
X140551400Y-78963050D01*
X140533822Y-79051419D01*
X140530889Y-79058499D01*
X140499342Y-79134661D01*
X140449284Y-79209578D01*
X140385578Y-79273284D01*
X140310661Y-79323342D01*
X140258168Y-79345085D01*
X140227419Y-79357822D01*
X140227418Y-79357822D01*
X140227416Y-79357823D01*
X140139051Y-79375400D01*
X140048949Y-79375400D01*
X139960584Y-79357823D01*
X139960582Y-79357822D01*
X139960581Y-79357822D01*
X139929832Y-79345085D01*
X139877339Y-79323342D01*
X139802422Y-79273284D01*
X139738716Y-79209578D01*
X139688658Y-79134661D01*
X139657111Y-79058499D01*
X139654178Y-79051419D01*
X139636600Y-78963050D01*
X139636600Y-78872950D01*
X139654178Y-78784581D01*
X139678692Y-78725400D01*
X139688658Y-78701339D01*
X139738716Y-78626422D01*
X139802422Y-78562716D01*
X139877339Y-78512658D01*
X139944930Y-78484661D01*
X139960581Y-78478178D01*
X139960582Y-78478178D01*
X139960584Y-78478177D01*
X140048949Y-78460600D01*
X140139051Y-78460600D01*
X140227416Y-78478177D01*
X140227416Y-78478177D01*
G37*
G36*
X145607416Y-78478177D02*
X145607418Y-78478178D01*
X145607419Y-78478178D01*
X145623070Y-78484661D01*
X145690661Y-78512658D01*
X145765578Y-78562716D01*
X145829284Y-78626422D01*
X145879342Y-78701339D01*
X145889308Y-78725400D01*
X145913822Y-78784581D01*
X145931400Y-78872950D01*
X145931400Y-78963050D01*
X145913822Y-79051419D01*
X145910889Y-79058499D01*
X145879342Y-79134661D01*
X145829284Y-79209578D01*
X145765578Y-79273284D01*
X145690661Y-79323342D01*
X145638168Y-79345085D01*
X145607419Y-79357822D01*
X145607418Y-79357822D01*
X145607416Y-79357823D01*
X145519051Y-79375400D01*
X145428949Y-79375400D01*
X145340584Y-79357823D01*
X145340582Y-79357822D01*
X145340581Y-79357822D01*
X145309832Y-79345085D01*
X145257339Y-79323342D01*
X145182422Y-79273284D01*
X145118716Y-79209578D01*
X145068658Y-79134661D01*
X145037111Y-79058499D01*
X145034178Y-79051419D01*
X145016600Y-78963050D01*
X145016600Y-78872950D01*
X145034178Y-78784581D01*
X145058692Y-78725400D01*
X145068658Y-78701339D01*
X145118716Y-78626422D01*
X145182422Y-78562716D01*
X145257339Y-78512658D01*
X145324930Y-78484661D01*
X145340581Y-78478178D01*
X145340582Y-78478178D01*
X145340584Y-78478177D01*
X145428949Y-78460600D01*
X145519051Y-78460600D01*
X145607416Y-78478177D01*
X145607416Y-78478177D01*
G37*
G36*
X162556402Y-77707713D02*
X162710140Y-77771393D01*
X162848499Y-77863842D01*
X162966158Y-77981501D01*
X163058607Y-78119860D01*
X163122287Y-78273598D01*
X163154750Y-78436798D01*
X163154750Y-78603202D01*
X163122287Y-78766402D01*
X163058607Y-78920140D01*
X162966158Y-79058499D01*
X162848499Y-79176158D01*
X162710140Y-79268607D01*
X162556402Y-79332287D01*
X162393202Y-79364750D01*
X162226798Y-79364750D01*
X162063598Y-79332287D01*
X161909860Y-79268607D01*
X161771501Y-79176158D01*
X161653842Y-79058499D01*
X161561393Y-78920140D01*
X161497713Y-78766402D01*
X161465250Y-78603202D01*
X161465250Y-78436798D01*
X161497713Y-78273598D01*
X161561393Y-78119860D01*
X161653842Y-77981501D01*
X161771501Y-77863842D01*
X161909860Y-77771393D01*
X162063598Y-77707713D01*
X162226798Y-77675250D01*
X162393202Y-77675250D01*
X162556402Y-77707713D01*
X162556402Y-77707713D01*
G37*
G36*
X136567416Y-77828177D02*
X136567418Y-77828178D01*
X136567419Y-77828178D01*
X136598168Y-77840915D01*
X136650661Y-77862658D01*
X136725578Y-77912716D01*
X136789284Y-77976422D01*
X136839342Y-78051339D01*
X136873823Y-78134584D01*
X136891400Y-78222949D01*
X136891400Y-78313051D01*
X136873823Y-78401416D01*
X136839342Y-78484661D01*
X136789284Y-78559578D01*
X136725578Y-78623284D01*
X136650661Y-78673342D01*
X136598168Y-78695085D01*
X136567419Y-78707822D01*
X136567418Y-78707822D01*
X136567416Y-78707823D01*
X136479051Y-78725400D01*
X136388949Y-78725400D01*
X136300584Y-78707823D01*
X136300582Y-78707822D01*
X136300581Y-78707822D01*
X136269832Y-78695085D01*
X136217339Y-78673342D01*
X136142422Y-78623284D01*
X136078716Y-78559578D01*
X136028658Y-78484661D01*
X135994177Y-78401416D01*
X135976600Y-78313051D01*
X135976600Y-78222949D01*
X135994177Y-78134584D01*
X136028658Y-78051339D01*
X136078716Y-77976422D01*
X136142422Y-77912716D01*
X136217339Y-77862658D01*
X136269832Y-77840915D01*
X136300581Y-77828178D01*
X136300582Y-77828178D01*
X136300584Y-77828177D01*
X136388949Y-77810600D01*
X136479051Y-77810600D01*
X136567416Y-77828177D01*
X136567416Y-77828177D01*
G37*
G36*
X150160721Y-76308174D02*
X150260995Y-76349709D01*
X150351245Y-76410012D01*
X150427988Y-76486755D01*
X150488291Y-76577005D01*
X150529826Y-76677279D01*
X150551000Y-76783730D01*
X150551000Y-76892270D01*
X150529826Y-76998721D01*
X150488291Y-77098995D01*
X150427988Y-77189245D01*
X150351245Y-77265988D01*
X150260995Y-77326291D01*
X150160721Y-77367826D01*
X150054270Y-77389000D01*
X149945730Y-77389000D01*
X149839279Y-77367826D01*
X149739005Y-77326291D01*
X149648755Y-77265988D01*
X149572012Y-77189245D01*
X149511709Y-77098995D01*
X149470174Y-76998721D01*
X149449000Y-76892270D01*
X149449000Y-76783730D01*
X149470174Y-76677279D01*
X149511709Y-76577005D01*
X149572012Y-76486755D01*
X149648755Y-76410012D01*
X149739005Y-76349709D01*
X149839279Y-76308174D01*
X149945730Y-76287000D01*
X150054270Y-76287000D01*
X150160721Y-76308174D01*
X150160721Y-76308174D01*
G37*
M02*
